<?xml version="1.0" encoding="UTF-8"?>
<svg version="1.1" xmlns="http://www.w3.org/2000/svg" width="200" height="200">
<path d="M0 0 C1.83339432 -0.01279495 1.83339432 -0.01279495 3.7038269 -0.02584839 C5.04516615 -0.02514947 6.38650529 -0.02422646 7.72784424 -0.02310181 C9.150913 -0.02909111 10.57397851 -0.03589758 11.99703979 -0.04345703 C15.85262235 -0.06108563 19.70811605 -0.06581114 23.56373501 -0.0670886 C25.97632959 -0.0685128 28.38890178 -0.07278752 30.80149078 -0.07808304 C39.22910489 -0.09657451 47.65665583 -0.10475496 56.08428955 -0.10317993 C63.92210868 -0.10197949 71.759652 -0.12306482 79.59740138 -0.15466726 C86.34073573 -0.18088141 93.08398029 -0.19154505 99.82736516 -0.19026911 C103.84851744 -0.18976089 107.8694246 -0.19536597 111.89052582 -0.21662521 C115.67620769 -0.23609403 119.46141286 -0.23607377 123.24711227 -0.22159195 C125.28481119 -0.21852834 127.3225106 -0.23512049 129.36013794 -0.25247192 C141.05085963 -0.17296658 150.44118434 2.84161732 158.80303955 11.26742554 C163.85003217 18.08680957 167.04328218 24.88268251 167.07046509 33.46438599 C167.08326004 35.2977803 167.08326004 35.2977803 167.09631348 37.16821289 C167.09561456 38.50955213 167.09469155 39.85089127 167.09356689 41.19223022 C167.0995562 42.61529898 167.10636267 44.0383645 167.11392212 45.46142578 C167.13155071 49.31700833 167.13627623 53.17250204 167.13755369 57.02812099 C167.13897789 59.44071558 167.14325261 61.85328776 167.14854813 64.26587677 C167.16703959 72.69349087 167.17522004 81.12104182 167.17364502 89.54867554 C167.17244458 97.38649466 167.19352991 105.22403799 167.22513235 113.06178737 C167.2513465 119.80512171 167.26201013 126.54836628 167.2607342 133.29175115 C167.26022598 137.31290342 167.26583105 141.33381059 167.2870903 145.3549118 C167.30655912 149.14059368 167.30653886 152.92579885 167.29205704 156.71149826 C167.28899343 158.74919718 167.30558558 160.78689658 167.32293701 162.82452393 C167.24343167 174.51524562 164.22884777 183.90557033 155.80303955 192.26742554 C148.98365551 197.31441816 142.18778257 200.50766816 133.6060791 200.53485107 C131.77268478 200.54764603 131.77268478 200.54764603 129.9022522 200.56069946 C128.56091296 200.56000054 127.21957382 200.55907754 125.87823486 200.55795288 C124.45516611 200.56394218 123.03210059 200.57074865 121.60903931 200.57830811 C117.75345676 200.5959367 113.89796305 200.60066222 110.04234409 200.60193968 C107.62974951 200.60336387 105.21717732 200.6076386 102.80458832 200.61293411 C94.37697421 200.63142558 85.94942327 200.63960603 77.52178955 200.63803101 C69.68397042 200.63683057 61.8464271 200.65791589 54.00867772 200.68951833 C47.26534338 200.71573248 40.52209881 200.72639612 33.77871394 200.72512019 C29.75756167 200.72461196 25.7366545 200.73021704 21.71555328 200.75147629 C17.92987141 200.77094511 14.14466624 200.77092485 10.35896683 200.75644302 C8.32126791 200.75337941 6.28356851 200.76997156 4.24594116 200.787323 C-7.44478053 200.70781765 -16.83510524 197.69323375 -25.19696045 189.26742554 C-30.24395307 182.4480415 -33.43720308 175.65216856 -33.46438599 167.07046509 C-33.47291595 165.84820221 -33.48144592 164.62593933 -33.49023438 163.36663818 C-33.48953545 162.02529894 -33.48861245 160.6839598 -33.48748779 159.34262085 C-33.49347709 157.91955209 -33.50028357 156.49648658 -33.50784302 155.07342529 C-33.52547161 151.21784274 -33.53019713 147.36234904 -33.53147459 143.50673008 C-33.53289878 141.0941355 -33.53717351 138.68156331 -33.54246902 136.2689743 C-33.56096049 127.8413602 -33.56914094 119.41380926 -33.56756592 110.98617554 C-33.56636548 103.14835641 -33.58745081 95.31081308 -33.61905324 87.47306371 C-33.64526739 80.72972936 -33.65593103 73.98648479 -33.6546551 67.24309993 C-33.65414688 63.22194765 -33.65975195 59.20104049 -33.6810112 55.17993927 C-33.70048002 51.3942574 -33.70045976 47.60905222 -33.68597794 43.82335281 C-33.68291432 41.7856539 -33.69950648 39.74795449 -33.71685791 37.71032715 C-33.63735257 26.01960546 -30.62276866 16.62928075 -22.19696045 8.26742554 C-15.37757641 3.22043291 -8.58170347 0.02718291 0 0 Z " fill="#F9F7F7" transform="translate(33.19696044921875,-0.267425537109375)"/>
<path d="M0 0 C3.09793136 1.83492857 5.59529082 4.07538601 8.1640625 6.56640625 C13.06138299 11.19438179 18.09927879 15.5108622 23.359375 19.7265625 C25.5390625 21.50390625 25.5390625 21.50390625 27.5390625 23.50390625 C27.57515625 24.77878906 27.61125 26.05367187 27.6484375 27.3671875 C27.79253784 29.53456557 27.79253784 29.53456557 28.5390625 31.50390625 C31.01441192 33.50960912 33.84817699 34.51711221 36.7890625 35.69140625 C42.70697332 38.42808271 46.45461018 40.349188 48.8515625 46.75390625 C49.45713714 48.99269735 50.01925778 51.24366084 50.5390625 53.50390625 C51.32507558 55.79751818 52.11662719 58.08924052 52.9140625 60.37890625 C55.2826447 67.44849129 53.76212319 73.23046379 51.6484375 80.22265625 C51.27098389 81.47747803 50.89353027 82.7322998 50.50463867 84.02514648 C50.09965414 85.35146312 49.69445834 86.67771527 49.2890625 88.00390625 C48.87648114 89.36719995 48.46412843 90.73056286 48.05200195 92.09399414 C45.6990681 99.85047912 43.23054547 107.55478925 40.6015625 115.22265625 C38.65179993 121.24398182 37.09626241 127.37080044 35.5390625 133.50390625 C36.10753906 133.61347656 36.67601562 133.72304687 37.26171875 133.8359375 C42.36223008 134.88328791 46.8235045 136.29662378 51.5390625 138.50390625 C49.70570974 144.76786153 47.91815161 150.04355954 42.26171875 153.515625 C41.04566237 154.08286477 39.82543793 154.64123991 38.6015625 155.19140625 C33.25693021 157.86304311 30.77628045 159.79478861 28.7890625 165.69140625 C28.45261719 166.70847656 28.11617188 167.72554687 27.76953125 168.7734375 C25.92215344 172.87285682 23.5584816 174.28878917 19.46875 175.9453125 C14.82763335 176.83021874 10.71705707 176.00507188 6.1171875 175.12890625 C-2.8059515 173.57027935 -11.84640992 174.49676905 -20.78125 175.578125 C-23.4609375 175.50390625 -23.4609375 175.50390625 -24.87768555 174.05859375 C-26.77308819 172.19738727 -27.87811249 171.9643523 -30.47265625 171.5546875 C-31.22998047 171.42900391 -31.98730469 171.30332031 -32.76757812 171.17382812 C-33.55326172 171.05587891 -34.33894531 170.93792969 -35.1484375 170.81640625 C-35.94572266 170.68685547 -36.74300781 170.55730469 -37.56445312 170.42382812 C-39.52822364 170.10633229 -41.49438261 169.803673 -43.4609375 169.50390625 C-43.32171875 168.59511719 -43.32171875 168.59511719 -43.1796875 167.66796875 C-42.66128755 161.65082643 -43.61941498 158.61317696 -47.4609375 153.87890625 C-48.77144897 152.40003046 -50.09758192 150.93421232 -51.4609375 149.50390625 C-50.30340504 146.44508744 -49.06003485 143.73862566 -47.2734375 141.00390625 C-45.26919803 137.13365072 -45.24654783 136.48004077 -46.4609375 132.50390625 C-47.59998445 130.33974847 -47.59998445 130.33974847 -49.0859375 128.28125 C-49.62404053 127.50120605 -50.16214355 126.72116211 -50.71655273 125.91748047 C-51.29219971 125.10037598 -51.86784668 124.28327148 -52.4609375 123.44140625 C-53.04238525 122.59594238 -53.62383301 121.75047852 -54.22290039 120.87939453 C-56.83007999 117.11669914 -59.46192727 113.42313537 -62.39453125 109.90625 C-63.22082031 108.90722656 -64.04710937 107.90820312 -64.8984375 106.87890625 C-65.63964844 106.04101562 -66.38085938 105.203125 -67.14453125 104.33984375 C-69.15487576 100.0089532 -67.88004902 96.91274582 -66.4609375 92.50390625 C-66.18531982 91.64700195 -65.90970215 90.79009766 -65.62573242 89.90722656 C-64.73046653 87.23834845 -63.79169954 84.58917792 -62.8359375 81.94140625 C-62.34867188 80.57145508 -62.34867188 80.57145508 -61.8515625 79.17382812 C-61.05940121 76.94878684 -60.2624716 74.7255845 -59.4609375 72.50390625 C-57.87726003 72.64595366 -56.29400432 72.79270778 -54.7109375 72.94140625 C-53.38835938 73.06322266 -53.38835938 73.06322266 -52.0390625 73.1875 C-49.76743298 73.4662909 -47.66241927 73.89181202 -45.4609375 74.50390625 C-46.43298655 67.78661206 -48.00381291 61.365173 -49.9609375 54.87890625 C-54.4609375 39.96508807 -54.4609375 39.96508807 -54.4609375 33.50390625 C-53.05004883 32.17041016 -53.05004883 32.17041016 -51.04296875 30.98046875 C-50.29345947 30.52381836 -49.5439502 30.06716797 -48.77172852 29.59667969 C-47.94729248 29.11231445 -47.12285645 28.62794922 -46.2734375 28.12890625 C-44.52704932 27.06642182 -42.7823172 26.00121162 -41.0390625 24.93359375 C-39.66717773 24.09779785 -39.66717773 24.09779785 -38.26757812 23.24511719 C-33.61307837 20.35751348 -29.07057419 17.30674256 -24.5234375 14.25390625 C-23.63954346 13.66561035 -22.75564941 13.07731445 -21.8449707 12.47119141 C-18.07216251 9.95551338 -14.320096 7.42570496 -10.64453125 4.76953125 C-9.59394531 4.021875 -8.54335937 3.27421875 -7.4609375 2.50390625 C-6.1615625 1.54484375 -6.1615625 1.54484375 -4.8359375 0.56640625 C-2.4609375 -0.49609375 -2.4609375 -0.49609375 0 0 Z " fill="#252525" transform="translate(106.4609375,11.49609375)"/>
<path d="M0 0 C3.09793136 1.83492857 5.59529082 4.07538601 8.1640625 6.56640625 C13.06138299 11.19438179 18.09927879 15.5108622 23.359375 19.7265625 C25.5390625 21.50390625 25.5390625 21.50390625 27.5390625 23.50390625 C27.57515625 24.77878906 27.61125 26.05367187 27.6484375 27.3671875 C27.79253784 29.53456557 27.79253784 29.53456557 28.5390625 31.50390625 C31.01441192 33.50960912 33.84817699 34.51711221 36.7890625 35.69140625 C42.70697332 38.42808271 46.45461018 40.349188 48.8515625 46.75390625 C49.45713714 48.99269735 50.01925778 51.24366084 50.5390625 53.50390625 C51.32507558 55.79751818 52.11662719 58.08924052 52.9140625 60.37890625 C55.2826447 67.44849129 53.76212319 73.23046379 51.6484375 80.22265625 C51.27098389 81.47747803 50.89353027 82.7322998 50.50463867 84.02514648 C50.09965414 85.35146312 49.69445834 86.67771527 49.2890625 88.00390625 C48.87648114 89.36719995 48.46412843 90.73056286 48.05200195 92.09399414 C45.6990681 99.85047912 43.23054547 107.55478925 40.6015625 115.22265625 C38.65179993 121.24398182 37.09626241 127.37080044 35.5390625 133.50390625 C36.10753906 133.61347656 36.67601562 133.72304687 37.26171875 133.8359375 C42.36223008 134.88328791 46.8235045 136.29662378 51.5390625 138.50390625 C49.75681464 144.59325309 47.79966085 150.44387299 42.19140625 153.83203125 C40.96298906 154.49137338 39.72433241 155.13196486 38.4765625 155.75390625 C33.03051296 158.4728494 33.03051296 158.4728494 28.5390625 162.50390625 C28.0440625 160.02890625 28.0440625 160.02890625 27.5390625 157.50390625 C28.1990625 157.50390625 28.8590625 157.50390625 29.5390625 157.50390625 C29.8690625 154.20390625 30.1990625 150.90390625 30.5390625 147.50390625 C30.8690625 147.50390625 31.1990625 147.50390625 31.5390625 147.50390625 C31.5390625 150.47390625 31.5390625 153.44390625 31.5390625 156.50390625 C34.8390625 154.52390625 38.1390625 152.54390625 41.5390625 150.50390625 C41.2090625 149.84390625 40.8790625 149.18390625 40.5390625 148.50390625 C41.8590625 148.83390625 43.1790625 149.16390625 44.5390625 149.50390625 C45.61431444 146.85161813 46.63362401 144.22022171 47.5390625 141.50390625 C43.9090625 141.83390625 40.2790625 142.16390625 36.5390625 142.50390625 C39.4567125 140.55880625 41.16443535 140.05114308 44.5390625 139.50390625 C42.03657385 137.83558048 40.12757063 136.88008951 37.3515625 135.87890625 C36.63613281 135.61851562 35.92070312 135.358125 35.18359375 135.08984375 C34.64089844 134.89648438 34.09820312 134.703125 33.5390625 134.50390625 C33.5390625 136.48390625 33.5390625 138.46390625 33.5390625 140.50390625 C33.2090625 140.50390625 32.8790625 140.50390625 32.5390625 140.50390625 C32.5390625 138.52390625 32.5390625 136.54390625 32.5390625 134.50390625 C30.8890625 134.50390625 29.2390625 134.50390625 27.5390625 134.50390625 C30.5390625 132.50390625 30.5390625 132.50390625 32.5390625 131.50390625 C33.54090396 128.74774851 34.43016927 126.02099831 35.26953125 123.21484375 C35.6605024 121.94149673 35.6605024 121.94149673 36.05937195 120.64242554 C36.61208497 118.84111512 37.16168799 117.03884798 37.70843506 115.23571777 C38.76514901 111.76034097 39.84587426 108.29267815 40.92678833 104.82476807 C41.9784998 101.44591639 43.02135322 98.06436119 44.0637207 94.68261719 C44.59678742 92.95473437 45.13099958 91.22720459 45.66625977 89.5 C46.45569143 86.95255835 47.24189327 84.40414032 48.02734375 81.85546875 C48.38509636 80.70396835 48.38509636 80.70396835 48.75007629 79.52920532 C49.87255746 75.87360945 50.88435219 72.27932472 51.5390625 68.50390625 C50.4871875 68.38015625 49.4353125 68.25640625 48.3515625 68.12890625 C42.39444125 67.38829118 36.46881053 66.43494901 30.5390625 65.50390625 C26.14242085 80.81967992 21.82161737 96.15585614 17.5390625 111.50390625 C15.12030599 108.38028841 13.44751028 105.37713906 11.8515625 101.75390625 C11.41457031 100.7690625 10.97757812 99.78421875 10.52734375 98.76953125 C10.20121094 98.021875 9.87507813 97.27421875 9.5390625 96.50390625 C5.2682635 101.07048379 5.2682635 101.07048379 3.60546875 106.68359375 C5.06243255 114.5993813 6.89162005 122.40062795 8.86157227 130.20458984 C9.07740967 131.0755127 9.29324707 131.94643555 9.515625 132.84375 C9.81073975 134.00958618 9.81073975 134.00958618 10.11181641 135.19897461 C10.57172995 137.68014246 10.611979 139.98606045 10.5390625 142.50390625 C9.8790625 142.17390625 9.2190625 141.84390625 8.5390625 141.50390625 C7.87225341 139.27135006 7.31724947 137.00514883 6.8125 134.73046875 C6.58368637 133.71114761 6.58368637 133.71114761 6.35025024 132.67123413 C6.02869494 131.23124535 5.71121082 129.7903424 5.39746094 128.34863281 C4.91715251 126.14309532 4.42456623 123.94059017 3.9296875 121.73828125 C1.5390625 110.97684589 1.5390625 110.97684589 1.5390625 107.50390625 C-5.74731941 112.28142406 -12.90358247 117.18044912 -19.91455078 122.35302734 C-24.24469155 125.50390625 -24.24469155 125.50390625 -26.4609375 125.50390625 C-25.9659375 127.48390625 -25.9659375 127.48390625 -25.4609375 129.50390625 C-26.1209375 129.50390625 -26.7809375 129.50390625 -27.4609375 129.50390625 C-27.9559375 128.51390625 -27.9559375 128.51390625 -28.4609375 127.50390625 C-32.89960111 125.60162185 -36.66385659 125.31202301 -41.4609375 125.50390625 C-41.4609375 124.84390625 -41.4609375 124.18390625 -41.4609375 123.50390625 C-37.92468476 122.44303043 -35.40676953 122.68283939 -31.86328125 123.3515625 C-25.40058076 124.03787217 -21.88062211 121.30728873 -16.8984375 117.50390625 C-16.11275391 116.93800781 -15.32707031 116.37210937 -14.51757812 115.7890625 C-12.1377331 114.06147129 -9.79882893 112.28773514 -7.4609375 110.50390625 C-6.64069092 109.89973877 -5.82044434 109.29557129 -4.9753418 108.6730957 C0.68517837 104.47213989 0.68517837 104.47213989 4.6015625 98.69140625 C5.17583984 97.56798828 5.17583984 97.56798828 5.76171875 96.421875 C6.66426833 94.53989948 6.66426833 94.53989948 6.5390625 92.50390625 C2.79534272 90.16120894 2.79534272 90.16120894 -1.42211914 89.76586914 C-3.63980668 90.56865557 -5.37031116 91.56645762 -7.33203125 92.875 C-8.06566895 93.36258789 -8.79930664 93.85017578 -9.55517578 94.35253906 C-10.32845215 94.87686523 -11.10172852 95.40119141 -11.8984375 95.94140625 C-12.69233887 96.47475586 -13.48624023 97.00810547 -14.30419922 97.55761719 C-21.24390575 102.26415996 -27.91054342 107.27284949 -34.4609375 112.50390625 C-34.9559375 111.51390625 -34.9559375 111.51390625 -35.4609375 110.50390625 C-37.4409375 110.50390625 -39.4209375 110.50390625 -41.4609375 110.50390625 C-41.4609375 110.17390625 -41.4609375 109.84390625 -41.4609375 109.50390625 C-40.2440625 109.42140625 -39.0271875 109.33890625 -37.7734375 109.25390625 C-33.64597549 108.764455 -31.55167512 107.32193173 -28.4609375 104.50390625 C-27.8009375 104.50390625 -27.1409375 104.50390625 -26.4609375 104.50390625 C-28.1109375 102.19390625 -29.7609375 99.88390625 -31.4609375 97.50390625 C-30.5946875 97.96796875 -30.5946875 97.96796875 -29.7109375 98.44140625 C-27.61189643 99.43262009 -25.71019612 99.97939426 -23.4609375 100.50390625 C-24.0405411 88.54862878 -25.10151197 76.706472 -26.4609375 64.81640625 C-26.81857705 61.66704784 -27.17306737 58.51736311 -27.5234375 55.3671875 C-27.60752869 54.61166092 -27.69161987 53.85613434 -27.77825928 53.07771301 C-28.41715852 47.20558064 -28.87606136 41.33759068 -29.23925781 35.44140625 C-29.44880718 32.66464632 -29.81243744 29.94612138 -30.2109375 27.19140625 C-30.235261 23.52463922 -29.57857307 22.62922185 -27.0078125 19.890625 C-24.23926399 17.60834719 -21.43781705 15.50460127 -18.4609375 13.50390625 C-23.97187538 16.93694952 -29.41180992 20.45908767 -34.796875 24.0859375 C-35.73764893 24.71870605 -36.67842285 25.35147461 -37.64770508 26.00341797 C-39.55904381 27.29149054 -41.46775948 28.58346431 -43.3737793 29.87939453 C-44.25976807 30.47606934 -45.14575684 31.07274414 -46.05859375 31.6875 C-46.85789307 32.22947021 -47.65719238 32.77144043 -48.48071289 33.32983398 C-50.4609375 34.50390625 -50.4609375 34.50390625 -52.4609375 34.50390625 C-52.4609375 36.48390625 -52.4609375 38.46390625 -52.4609375 40.50390625 C-54.4609375 37.50390625 -54.4609375 37.50390625 -54.4609375 33.50390625 C-53.05004883 32.17041016 -53.05004883 32.17041016 -51.04296875 30.98046875 C-49.91870483 30.29549316 -49.91870483 30.29549316 -48.77172852 29.59667969 C-47.94729248 29.11231445 -47.12285645 28.62794922 -46.2734375 28.12890625 C-44.52704932 27.06642182 -42.7823172 26.00121162 -41.0390625 24.93359375 C-40.12447266 24.37639648 -39.20988281 23.81919922 -38.26757812 23.24511719 C-33.61307837 20.35751348 -29.07057419 17.30674256 -24.5234375 14.25390625 C-23.63954346 13.66561035 -22.75564941 13.07731445 -21.8449707 12.47119141 C-18.07216251 9.95551338 -14.320096 7.42570496 -10.64453125 4.76953125 C-9.59394531 4.021875 -8.54335937 3.27421875 -7.4609375 2.50390625 C-6.1615625 1.54484375 -6.1615625 1.54484375 -4.8359375 0.56640625 C-2.4609375 -0.49609375 -2.4609375 -0.49609375 0 0 Z " fill="#323131" transform="translate(106.4609375,11.49609375)"/>
<path d="M0 0 C7.10377673 1.01791923 14.07511433 2.09905099 21 4 C20.43097271 9.5847244 19.39344025 14.64317967 17.70703125 19.98828125 C17.48033249 20.72560989 17.25363373 21.46293854 17.02006531 22.22261047 C16.29094133 24.58805269 15.55224651 26.95036036 14.8125 29.3125 C14.3081874 30.93590898 13.8042823 32.5594446 13.30078125 34.18310547 C12.31531591 37.35797446 11.32597876 40.53160286 10.33447266 43.70458984 C9.21274638 47.30239518 8.12014419 50.9081004 7.04296875 54.51953125 C6.640177 55.85213989 6.640177 55.85213989 6.22924805 57.21166992 C5.75814303 58.77071682 5.29424154 60.33196691 4.83911133 61.89575195 C3.70834784 65.57462711 3.31778168 66.78814554 0 69 C1.155 69.268125 2.31 69.53625 3.5 69.8125 C7.81623514 70.88385122 11.86292967 72.37472237 16 74 C13.64046906 76.35953094 12.22104383 76.49141413 9 77 C13.455 76.505 13.455 76.505 18 76 C16.94124926 79.40312738 15.99097846 82.01353231 14 85 C13.01 85 12.02 85 11 85 C11.33 85.66 11.66 86.32 12 87 C10.54462432 87.83848804 9.08559627 88.67063934 7.625 89.5 C6.81289062 89.9640625 6.00078125 90.428125 5.1640625 90.90625 C3 92 3 92 1 92 C0.67 90.35 0.34 88.7 0 87 C-1.69256087 91.90716931 -1.69256087 91.90716931 -1.4375 97 C-0.96987966 100.20653946 -1.2421093 102.37682675 -2.65625 105.31640625 C-5.51920321 108.9034203 -9.71021763 110.6365808 -14 112 C-17.625 111.8125 -17.625 111.8125 -20 111 C-18.02 110.505 -18.02 110.505 -16 110 C-16 108.35 -16 106.7 -16 105 C-15.67 106.32 -15.34 107.64 -15 109 C-12.03 108.01 -9.06 107.02 -6 106 C-6.38671875 105.41992188 -6.7734375 104.83984375 -7.171875 104.2421875 C-11.5859375 97.62109375 -11.5859375 97.62109375 -16 91 C-16.66 92.32 -17.32 93.64 -18 95 C-18 93.02 -18 91.04 -18 89 C-22.99824841 89.61313917 -27.15901296 91.1187717 -31.75 93.0625 C-38.75429062 96 -38.75429062 96 -41 96 C-41 96.66 -41 97.32 -41 98 C-43.5 99.625 -43.5 99.625 -46 101 C-46.99 100.01 -46.99 100.01 -48 99 C-47.01 97.68 -46.02 96.36 -45 95 C-45.495 94.38125 -45.99 93.7625 -46.5 93.125 C-48 91 -48 91 -48 89 C-49.485 89.495 -49.485 89.495 -51 90 C-51.33 89.01 -51.66 88.02 -52 87 C-52.67482422 87.63615234 -52.67482422 87.63615234 -53.36328125 88.28515625 C-58.82364704 93.2640469 -64.68551936 97.18113211 -71 101 C-71 98.69 -71 96.38 -71 94 C-71.66 94 -72.32 94 -73 94 C-74.5078125 92.42578125 -74.5078125 92.42578125 -76.125 90.3125 C-76.66382813 89.62800781 -77.20265625 88.94351563 -77.7578125 88.23828125 C-79.261443 85.52890931 -79.40146897 84.05881122 -79 81 C-77.9765625 78.76171875 -77.9765625 78.76171875 -76.625 76.6875 C-76.18414062 75.99011719 -75.74328125 75.29273438 -75.2890625 74.57421875 C-74.86367187 74.05472656 -74.43828125 73.53523438 -74 73 C-73.34 73 -72.68 73 -72 73 C-69.73603877 75.53563658 -68.59687434 77.65750371 -68 81 C-68 80.34 -68 79.68 -68 79 C-67.34 79 -66.68 79 -66 79 C-66.19335938 78.46632813 -66.38671875 77.93265625 -66.5859375 77.3828125 C-68.58697448 71.65707301 -69.94084244 65.96866438 -71 60 C-69.58249437 60.11509661 -68.16598831 60.24253658 -66.75 60.375 C-65.96109375 60.44460937 -65.1721875 60.51421875 -64.359375 60.5859375 C-61.51655952 61.0848422 -59.07250561 61.92749439 -57 64 C-57 63.01 -57 62.02 -57 61 C-55.62890625 59.81640625 -55.62890625 59.81640625 -53.5625 58.5625 C-47.79316952 54.92893129 -42.28765081 50.95875163 -36.76586914 46.96313477 C-36.05035889 46.45194092 -35.33484863 45.94074707 -34.59765625 45.4140625 C-33.95320557 44.9495166 -33.30875488 44.4849707 -32.64477539 44.00634766 C-31 43 -31 43 -29 43 C-26.36 54.22 -23.72 65.44 -21 77 C-21.63070907 71.95432743 -22.24673285 67.52279531 -23.4453125 62.671875 C-23.71730469 61.54265625 -23.98929688 60.4134375 -24.26953125 59.25 C-24.84388867 56.90011759 -25.42206783 54.55116627 -26.00390625 52.203125 C-26.27332031 51.0790625 -26.54273438 49.955 -26.8203125 48.796875 C-27.07055176 47.77948242 -27.32079102 46.76208984 -27.57861328 45.71386719 C-28.28766906 41.14731791 -26.89482274 38.53049653 -24.4375 34.75 C-23.98246094 34.04359375 -23.52742188 33.3371875 -23.05859375 32.609375 C-22.70925781 32.07828125 -22.35992187 31.5471875 -22 31 C-18.36804504 33.42130331 -17.88921526 35.11929096 -16.3125 39.125 C-15.87550781 40.22070312 -15.43851563 41.31640625 -14.98828125 42.4453125 C-14.66214844 43.28835937 -14.33601563 44.13140625 -14 45 C-10.50251512 34.94022391 -7.29292737 24.89173637 -4.73754883 14.54760742 C-3.48264408 9.53725979 -1.8917152 4.80833661 0 0 Z " fill="#1B1B1B" transform="translate(137,76)"/>
<path d="M0 0 C1.14598689 5.17637096 2.28511095 10.3541871 3.41796875 15.53344727 C3.80411675 17.29427569 4.19211978 19.05469839 4.58203125 20.81469727 C5.14293614 23.34806998 5.69710073 25.88283841 6.25 28.41796875 C6.42499023 29.20149216 6.59998047 29.98501556 6.78027344 30.7922821 C7.6033434 34.59703998 8.2183562 38.07982382 8 42 C5.36 42.99 2.72 43.98 0 45 C0.07238892 46.73902588 0.07238892 46.73902588 0.14624023 48.51318359 C0.30668107 52.85581262 0.36614892 57.19520462 0.39672852 61.54052734 C0.42366041 63.41285829 0.47720839 65.28501718 0.55883789 67.15576172 C1.19183936 82.27522352 1.19183936 82.27522352 -2.49383545 86.85705566 C-7.30823905 91.12284527 -12.91647498 93.97215833 -19 96 C-20.56734991 83.10649639 -21.95956375 70.197135 -23.28710938 57.27685547 C-23.51386892 55.0777466 -23.74273762 52.87885427 -23.97363281 50.68017578 C-24.31243723 47.45389878 -24.6451814 44.22704694 -24.9765625 41 C-25.13120468 39.54194946 -25.13120468 39.54194946 -25.28897095 38.05444336 C-26.88836018 22.24871452 -26.88836018 22.24871452 -24.19921875 18.46875 C-23.37035156 17.8190625 -22.54148437 17.169375 -21.6875 16.5 C-20.33011719 15.39785156 -20.33011719 15.39785156 -18.9453125 14.2734375 C-17.97335938 13.52320313 -17.00140625 12.77296875 -16 12 C-14.01804576 10.37840107 -12.03880686 8.75347686 -10.0625 7.125 C-9.16660156 6.40570312 -8.27070312 5.68640625 -7.34765625 4.9453125 C-5.03927203 3.10675749 -5.03927203 3.10675749 -3.30859375 1.2421875 C-2 0 -2 0 0 0 Z " fill="#F8F6F6" transform="translate(105,14)"/>
<path d="M0 0 C0.66 0.33 1.32 0.66 2 1 C0.38050958 2.50594681 -1.24575974 4.00460668 -2.875 5.5 C-3.77992187 6.3353125 -4.68484375 7.170625 -5.6171875 8.03125 C-8 10 -8 10 -10 10 C-9.64963227 13.65544951 -9.29820907 17.31079638 -8.94595337 20.96606445 C-8.81525639 22.32265878 -8.68470233 23.67926688 -8.55429077 25.03588867 C-7.69836284 33.93283838 -6.81849158 42.82699172 -5.91015625 51.71875 C-5.72619847 53.52733983 -5.54227906 55.33593357 -5.35839844 57.14453125 C-5.0872657 59.81060935 -4.81493168 62.47653532 -4.53869629 65.14208984 C-4.27920769 67.64650324 -4.02400633 70.15132292 -3.76953125 72.65625 C-3.65255638 73.76703918 -3.65255638 73.76703918 -3.53321838 74.90026855 C-3.09097895 79.29935219 -2.92874042 83.58697007 -3 88 C-4.485 88.495 -4.485 88.495 -6 89 C-8.62890625 87.19921875 -8.62890625 87.19921875 -11.5625 84.6875 C-12.53316406 83.86636719 -13.50382812 83.04523438 -14.50390625 82.19921875 C-18.20595909 78.93747266 -19.36045105 77.30327038 -20.55078125 72.53125 C-20.83477783 71.41065186 -21.11877441 70.29005371 -21.41137695 69.13549805 C-21.70874756 67.93578369 -22.00611816 66.73606934 -22.3125 65.5 C-22.93632543 63.03746257 -23.56132911 60.57522333 -24.1875 58.11328125 C-24.49429688 56.90236816 -24.80109375 55.69145508 -25.1171875 54.44384766 C-26.29648528 49.84341222 -27.53672733 45.26200718 -28.8125 40.6875 C-29.00690674 39.98496094 -29.20131348 39.28242187 -29.40161133 38.55859375 C-30.22708864 35.60937196 -31.10204834 32.71559723 -32.13671875 29.83203125 C-33.67577028 24.78310655 -33.67577028 24.78310655 -33 22 C-30.73895358 19.90820342 -28.14714508 18.43065062 -25.5 16.875 C-23.94778933 15.92028887 -22.39704548 14.96318948 -20.84765625 14.00390625 C-20.04859863 13.51422363 -19.24954102 13.02454102 -18.42626953 12.52001953 C-14.51475741 10.06951898 -10.72683758 7.44657278 -6.9375 4.8125 C-6.24140625 4.33087402 -5.5453125 3.84924805 -4.828125 3.35302734 C-3.21721644 2.23756302 -1.60835738 1.11913966 0 0 Z " fill="#F7F5F5" transform="translate(87,24)"/>
<path d="M0 0 C7.11212027 0.7206113 14.11233257 2.10926776 21 4 C20.43096887 9.58476204 19.39330306 14.64311703 17.70703125 19.98828125 C17.36725502 21.09427422 17.36725502 21.09427422 17.02061462 22.22261047 C16.2918683 24.58824033 15.55324969 26.95060337 14.8125 29.3125 C14.05300876 31.74437362 13.29407751 34.17642135 12.53530884 36.60852051 C12.03755199 38.20314059 11.53884265 39.79746368 11.03915405 41.39147949 C9.67851948 45.74905157 8.38613099 50.11498022 7.18359375 54.51953125 C6.93311279 55.40793701 6.68263184 56.29634277 6.42456055 57.21166992 C5.98990979 58.7666908 5.57684182 60.32798746 5.19067383 61.89575195 C4.609375 63.9140625 4.609375 63.9140625 3 67 C-0.39453125 68.421875 -0.39453125 68.421875 -4 69 C-5.20462891 69.20496094 -5.20462891 69.20496094 -6.43359375 69.4140625 C-9.21679688 69.70703125 -9.21679688 69.70703125 -12 70 C-11.855625 69.05125 -11.71125 68.1025 -11.5625 67.125 C-11.47613281 66.48820312 -11.38976562 65.85140625 -11.30078125 65.1953125 C-11.08846067 63.64564803 -10.85460844 62.09886022 -10.60546875 60.5546875 C-9.98797099 56.11684643 -9.69402552 53.68538283 -11.5625 49.5 C-13.62834239 44.47012287 -12.43303899 41.11093707 -11 36 C-10.72800781 35.00484375 -10.45601563 34.0096875 -10.17578125 32.984375 C-9.35197166 30.05063957 -8.50029833 27.12635903 -7.64013672 24.203125 C-6.89223547 21.62911248 -6.16611194 19.04938783 -5.44140625 16.46875 C-5.17231445 15.51395752 -4.90322266 14.55916504 -4.62597656 13.57543945 C-4.08804492 11.66571756 -3.55220203 9.75540594 -3.01855469 7.84448242 C-2.77137695 6.97154541 -2.52419922 6.0986084 -2.26953125 5.19921875 C-2.04885986 4.41377686 -1.82818848 3.62833496 -1.60083008 2.8190918 C-1 1 -1 1 0 0 Z " fill="#F7F5F5" transform="translate(137,76)"/>
<path d="M0 0 C21.56243368 1.65864874 21.56243368 1.65864874 24.984375 4.8515625 C27.80313407 8.61421796 29.05274236 10.71137595 28.85546875 15.53125 C27.91840721 21.25543009 26.23190866 26.81058075 24.625 32.375 C24.32078125 33.4475 24.0165625 34.52 23.703125 35.625 C23.10115596 37.7396092 22.49354775 39.8526225 21.87988281 41.96386719 C21.2995699 43.96630099 20.73092872 45.9721593 20.17480469 47.98144531 C19.91860352 48.88733398 19.66240234 49.79322266 19.3984375 50.7265625 C19.17591309 51.52916504 18.95338867 52.33176758 18.72412109 53.15869141 C18 55 18 55 16 56 C15.16235732 54.04350603 14.33000941 52.08474444 13.5 50.125 C13.0359375 49.03445312 12.571875 47.94390625 12.09375 46.8203125 C11 44 11 44 11 42 C10.113125 41.71125 9.22625 41.4225 8.3125 41.125 C5.50957267 40.17306241 2.74844577 39.09937831 0 38 C0 25.46 0 12.92 0 0 Z " fill="#F6F4F4" transform="translate(106,61)"/>
<path d="M0 0 C1.28749644 5.33717498 2.56907843 10.67572238 3.84521484 16.015625 C4.28011655 17.83176932 4.7166282 19.64752891 5.15478516 21.46289062 C5.78452035 24.07322153 6.40844133 26.68488401 7.03125 29.296875 C7.22811401 30.10743347 7.42497803 30.91799194 7.62780762 31.75311279 C7.80799438 32.51359924 7.98818115 33.27408569 8.17382812 34.05761719 C8.33371216 34.72380066 8.49359619 35.38998413 8.6583252 36.07635498 C9 38 9 38 9 42 C-0.57 42 -10.14 42 -20 42 C-21.98 36.8953125 -21.98 36.8953125 -24 31.6875 C-24.41765625 30.61846436 -24.8353125 29.54942871 -25.265625 28.44799805 C-25.59046875 27.60277588 -25.9153125 26.75755371 -26.25 25.88671875 C-26.58515625 25.02264404 -26.9203125 24.15856934 -27.265625 23.26831055 C-28 21 -28 21 -28 18 C-26.62890625 16.81640625 -26.62890625 16.81640625 -24.5625 15.5625 C-18.79316952 11.92893129 -13.28765081 7.95875163 -7.76586914 3.96313477 C-7.05035889 3.45194092 -6.33484863 2.94074707 -5.59765625 2.4140625 C-4.95320557 1.9495166 -4.30875488 1.4849707 -3.64477539 1.00634766 C-2 0 -2 0 0 0 Z " fill="#F7F5F5" transform="translate(108,119)"/>
<path d="M0 0 C-1.37265846 4.85837904 -3.43317663 6.01604167 -7.6875 8.5 C-11.62452102 11.55622481 -11.62452102 11.55622481 -13.3730011 16.00375366 C-13.38937811 18.4467889 -13.22288913 20.81416642 -12.98828125 23.24609375 C-12.88882202 24.61507057 -12.88882202 24.61507057 -12.78735352 26.01170349 C-12.55803248 29.01158188 -12.2831436 32.0047497 -12 35 C-11.90899017 36.02353577 -11.81798035 37.04707153 -11.72421265 38.10162354 C-11.15261866 44.50703809 -10.51687283 50.90412073 -9.84326172 57.29956055 C-9.4941971 60.61766053 -9.15471017 63.93664654 -8.81640625 67.25585938 C-8.59690089 69.3802649 -8.37686933 71.50461613 -8.15625 73.62890625 C-8.05517944 74.61419815 -7.95410889 75.59949005 -7.84997559 76.61463928 C-7.70477478 77.98403908 -7.70477478 77.98403908 -7.55664062 79.38110352 C-7.47305298 80.1793605 -7.38946533 80.97761749 -7.30334473 81.80006409 C-7.01058676 83.92322205 -6.56180401 85.93335065 -6 88 C4.1682044 83.89771812 4.1682044 83.89771812 10.91308594 75.81433105 C12.1906299 69.72078256 11.79838097 63.55419873 11.5 57.375 C11.46791412 55.49360052 11.44310956 53.61206202 11.42578125 51.73046875 C11.36784962 47.14773629 11.21124902 42.57812266 11 38 C13.475 37.505 13.475 37.505 16 37 C16 37.66 16 38.32 16 39 C15.01 39 14.02 39 13 39 C13 51.87 13 64.74 13 78 C14.65 78.33 16.3 78.66 18 79 C22.03431141 80.48873204 23.64668847 81.4162363 25.8984375 85.13671875 C26.38570313 86.30847656 26.87296875 87.48023437 27.375 88.6875 C27.87773438 89.86699219 28.38046875 91.04648438 28.8984375 92.26171875 C29.26195313 93.16535156 29.62546875 94.06898437 30 95 C30.19335938 94.30132812 30.38671875 93.60265625 30.5859375 92.8828125 C30.84632812 91.97273438 31.10671875 91.06265625 31.375 90.125 C31.63023438 89.22007813 31.88546875 88.31515625 32.1484375 87.3828125 C33 85 33 85 35 83 C34.37968409 89.57534861 32.85102717 95.66692592 31 102 C28.51372483 98.9377256 26.90010596 95.8542946 25.3125 92.25 C24.87550781 91.26515625 24.43851562 90.2803125 23.98828125 89.265625 C23.66214844 88.51796875 23.33601563 87.7703125 23 87 C18.729201 91.56657754 18.729201 91.56657754 17.06640625 97.1796875 C18.52337005 105.09547505 20.35255755 112.8967217 22.32250977 120.70068359 C22.53834717 121.57160645 22.75418457 122.4425293 22.9765625 123.33984375 C23.27167725 124.50567993 23.27167725 124.50567993 23.57275391 125.69506836 C24.03266745 128.17623621 24.0729165 130.4821542 24 133 C23.34 132.67 22.68 132.34 22 132 C21.33319091 129.76744381 20.77818697 127.50124258 20.2734375 125.2265625 C20.12089508 124.54701508 19.96835266 123.86746765 19.81118774 123.16732788 C19.48963244 121.7273391 19.17214832 120.28643615 18.85839844 118.84472656 C18.37809001 116.63918907 17.88550373 114.43668392 17.390625 112.234375 C15 101.47293964 15 101.47293964 15 98 C7.71361809 102.77751781 0.55735503 107.67654287 -6.45361328 112.84912109 C-10.78375405 116 -10.78375405 116 -13 116 C-12.67 117.32 -12.34 118.64 -12 120 C-12.66 120 -13.32 120 -14 120 C-14.495 119.01 -14.495 119.01 -15 118 C-19.43866361 116.0977156 -23.20291909 115.80811676 -28 116 C-28 115.34 -28 114.68 -28 114 C-24.46374726 112.93912418 -21.94583203 113.17893314 -18.40234375 113.84765625 C-11.93964326 114.53396592 -8.41968461 111.80338248 -3.4375 108 C-2.65181641 107.43410156 -1.86613281 106.86820312 -1.05664062 106.28515625 C1.3232044 104.55756504 3.66210857 102.78382889 6 101 C6.82024658 100.39583252 7.64049316 99.79166504 8.4855957 99.16918945 C14.14611587 94.96823364 14.14611587 94.96823364 18.0625 89.1875 C18.63677734 88.06408203 18.63677734 88.06408203 19.22265625 86.91796875 C20.12520583 85.03599323 20.12520583 85.03599323 20 83 C16.25628022 80.65730269 16.25628022 80.65730269 12.03881836 80.26196289 C9.82113082 81.06474932 8.09062634 82.06255137 6.12890625 83.37109375 C5.39526855 83.85868164 4.66163086 84.34626953 3.90576172 84.84863281 C3.13248535 85.37295898 2.35920898 85.89728516 1.5625 86.4375 C0.76859863 86.97084961 -0.02530273 87.50419922 -0.84326172 88.05371094 C-7.78296825 92.76025371 -14.44960592 97.76894324 -21 103 C-21.495 102.01 -21.495 102.01 -22 101 C-23.98 101 -25.96 101 -28 101 C-28 100.67 -28 100.34 -28 100 C-26.783125 99.9175 -25.56625 99.835 -24.3125 99.75 C-20.18503799 99.26054875 -18.09073762 97.81802548 -15 95 C-14.34 95 -13.68 95 -13 95 C-14.65 92.69 -16.3 90.38 -18 88 C-17.13375 88.4640625 -17.13375 88.4640625 -16.25 88.9375 C-14.15095893 89.92871384 -12.24925862 90.47548801 -10 91 C-10.5796036 79.04472253 -11.64057447 67.20256575 -13 55.3125 C-13.35763955 52.16314159 -13.71212987 49.01345686 -14.0625 45.86328125 C-14.14659119 45.10775467 -14.23068237 44.35222809 -14.31732178 43.57380676 C-14.95622102 37.70167439 -15.41512386 31.83368443 -15.77832031 25.9375 C-15.98786968 23.16074007 -16.35149994 20.44221513 -16.75 17.6875 C-16.7743235 14.02073297 -16.11763557 13.1253156 -13.546875 10.38671875 C-10.77832649 8.10444094 -7.97687955 6.00069502 -5 4 C-10.51093788 7.43304327 -15.95087242 10.95518142 -21.3359375 14.58203125 C-22.27671143 15.2147998 -23.21748535 15.84756836 -24.18676758 16.49951172 C-26.09810631 17.78758429 -28.00682198 19.07955806 -29.9128418 20.37548828 C-30.79883057 20.97216309 -31.68481934 21.56883789 -32.59765625 22.18359375 C-33.39695557 22.72556396 -34.19625488 23.26753418 -35.01977539 23.82592773 C-37 25 -37 25 -39 25 C-39 26.98 -39 28.96 -39 31 C-41 28 -41 28 -41 24 C-39.55737305 22.65063477 -39.55737305 22.65063477 -37.51171875 21.44140625 C-36.75117187 20.97887451 -35.990625 20.51634277 -35.20703125 20.03979492 C-34.37558594 19.5522876 -33.54414062 19.06478027 -32.6875 18.5625 C-30.94955525 17.51155342 -29.21394651 16.45673591 -27.48046875 15.3984375 C-26.57989746 14.84897461 -25.67932617 14.29951172 -24.75146484 13.73339844 C-19.37612498 10.34698202 -14.20934199 6.64131334 -9.05737305 2.92602539 C-8.30625244 2.3974292 -7.55513184 1.86883301 -6.78125 1.32421875 C-6.12189453 0.85072998 -5.46253906 0.37724121 -4.78320312 -0.1105957 C-3 -1 -3 -1 0 0 Z " fill="#292929" transform="translate(93,21)"/>
<path d="M0 0 C3.00075879 1.35208967 5.14318913 2.87560189 7.50390625 5.16015625 C8.15738037 5.7850293 8.81085449 6.40990234 9.48413086 7.05371094 C10.16999268 7.71661133 10.85585449 8.37951172 11.5625 9.0625 C17.19381169 14.443774 22.88064277 19.51477149 29.05859375 24.265625 C31 26 31 26 32 29 C27.04345549 33.95654451 22.53552081 34.84704637 15.56640625 34.88671875 C6.67839989 34.41203701 -0.62443097 29.60060246 -8 25 C-5.85406445 16.45115106 -3.0505873 8.25949525 0 0 Z " fill="#F5F3F3" transform="translate(48,87)"/>
<path d="M0 0 C2.8125 1.5625 2.8125 1.5625 5 3 C2.45769607 13.1692157 -4.62569166 18.68354798 -13 24.25 C-13.8765625 24.848125 -14.753125 25.44625 -15.65625 26.0625 C-17.34654052 27.21311945 -19.04307096 28.3546416 -20.74658203 29.4855957 C-22.11016594 30.40198909 -23.45990394 31.3401675 -24.78076172 32.31713867 C-27.14141918 34.04659824 -28.68153874 34.97495779 -31.6328125 35.20703125 C-32.45523438 35.07683594 -33.27765625 34.94664062 -34.125 34.8125 C-34.95257813 34.69519531 -35.78015625 34.57789063 -36.6328125 34.45703125 C-38.77997144 34.04248076 -40.88655938 33.56001307 -43 33 C-40.67819848 21.28664176 -28.30590909 14.73988304 -19.20019531 8.51416016 C-17.22442426 7.15444732 -15.2766207 5.76455462 -13.3359375 4.35546875 C-12.29695313 3.61941406 -11.25796875 2.88335937 -10.1875 2.125 C-9.29417969 1.48820312 -8.40085938 0.85140625 -7.48046875 0.1953125 C-4.44494692 -1.2674744 -3.15004676 -1.06222507 0 0 Z " fill="#F3F2F2" transform="translate(109,101)"/>
<path d="M0 0 C1.41750563 0.11509661 2.83401169 0.24253658 4.25 0.375 C5.03890625 0.44460937 5.8278125 0.51421875 6.640625 0.5859375 C9.085877 1.01507113 10.84836903 1.78600638 13 3 C13 3.66 13 4.32 13 5 C13.99 5.33 14.98 5.66 16 6 C17.45703125 8.9140625 17.45703125 8.9140625 18.8125 12.625 C19.27269531 13.83414063 19.73289062 15.04328125 20.20703125 16.2890625 C21.1388551 20.6498145 20.69754695 22.90822499 19 27 C14.18592253 33.08093996 6.54227495 37.0433668 0 41 C0 38.69 0 36.38 0 34 C-0.66 34 -1.32 34 -2 34 C-3.5078125 32.42578125 -3.5078125 32.42578125 -5.125 30.3125 C-5.66382813 29.62800781 -6.20265625 28.94351563 -6.7578125 28.23828125 C-8.261443 25.52890931 -8.40146897 24.05881122 -8 21 C-6.9765625 18.76171875 -6.9765625 18.76171875 -5.625 16.6875 C-5.18414062 15.99011719 -4.74328125 15.29273438 -4.2890625 14.57421875 C-3.86367188 14.05472656 -3.43828125 13.53523437 -3 13 C-2.34 13 -1.68 13 -1 13 C1.26396123 15.53563658 2.40312566 17.65750371 3 21 C3 20.34 3 19.68 3 19 C3.66 19 4.32 19 5 19 C4.80664062 18.46632812 4.61328125 17.93265625 4.4140625 17.3828125 C2.41302552 11.65707301 1.05915756 5.96866438 0 0 Z " fill="#323232" transform="translate(66,136)"/>
<path d="M0 0 C15.86341016 5.13851919 15.86341016 5.13851919 19.22900391 11.22119141 C22.20703058 18.10136901 25 25.45630001 25 33 C17.25897921 33.27475845 7.80146991 32.21613359 1.69140625 27.046875 C-2.89399967 20.7570616 -2.67934892 15.36481679 -1.53125 7.98828125 C-1.06557179 5.31405565 -0.55616541 2.656683 0 0 Z " fill="#F5F3F3" transform="translate(133,45)"/>
<path d="M0 0 C4.60853797 0.72008406 8.67237409 2.31295939 13 4 C10.64046906 6.35953094 9.22104383 6.49141413 6 7 C10.455 6.505 10.455 6.505 15 6 C13.94124926 9.40312738 12.99097846 12.01353231 11 15 C10.01 15 9.02 15 8 15 C8.33 15.66 8.66 16.32 9 17 C7.54462432 17.83848804 6.08559627 18.67063934 4.625 19.5 C3.81289062 19.9640625 3.00078125 20.428125 2.1640625 20.90625 C0 22 0 22 -2 22 C-2.495 19.525 -2.495 19.525 -3 17 C-3.33 18.65 -3.66 20.3 -4 22 C-9.34844008 21.46515599 -13.35796103 19.53309233 -18 17 C-17 15 -17 15 -16 14 C-16.99 14 -17.98 14 -19 14 C-18.40049704 10.31733897 -17.75241109 6.65456815 -17 3 C-11.17728663 2.40279863 -7.0790596 4.471757 -2 7 C-1.855625 6.401875 -1.71125 5.80375 -1.5625 5.1875 C-1.1127561 3.43849596 -0.57107659 1.71322977 0 0 Z " fill="#2E2E2E" transform="translate(140,146)"/>
<path d="M0 0 C4.48598731 2.9906582 5.36931815 7.14250196 7.25 12.0625 C7.62640625 12.97966797 8.0028125 13.89683594 8.390625 14.84179688 C12.06529612 24.37297509 10.44051243 31.48493849 7.5625 41 C7.34529297 41.76183594 7.12808594 42.52367187 6.90429688 43.30859375 C6.33510172 45.22642249 5.67470896 47.11670023 5 49 C4.01 49.495 4.01 49.495 3 50 C2.03396604 46.09107603 1.07399521 42.18071319 0.11914062 38.26904297 C-0.2051234 36.94411044 -0.53091904 35.61955162 -0.85839844 34.29541016 C-2.49262378 27.68331437 -4.07726882 21.05582432 -5.40625 14.375 C-5.59251953 13.45976563 -5.77878906 12.54453125 -5.97070312 11.6015625 C-6.02472305 6.80459354 -3.08149373 3.44709468 0 0 Z " fill="#F3F1F1" transform="translate(115,107)"/>
<path d="M0 0 C8.78783135 6.27702239 17.35580095 13.35580095 25 21 C25.125 24.625 25.125 24.625 25 28 C22.39688008 28.67099984 19.79264602 29.33695338 17.1875 30 C16.08051758 30.28617188 16.08051758 30.28617188 14.95117188 30.578125 C11.89464659 31.35262914 9.16626522 32 6 32 C5.14168734 27.92567808 4.28729726 23.85055931 3.43652344 19.7746582 C3.146584 18.38836498 2.85557621 17.00229474 2.56347656 15.61645508 C2.14366701 13.62378763 1.72771325 11.63034833 1.3125 9.63671875 C1.06113281 8.43748779 0.80976562 7.23825684 0.55078125 6.00268555 C0 3 0 3 0 0 Z " fill="#F5F3F3" transform="translate(107,15)"/>
<path d="M0 0 C1.41750563 0.11509661 2.83401169 0.24253658 4.25 0.375 C5.03890625 0.44460937 5.8278125 0.51421875 6.640625 0.5859375 C9.18015485 1.03161658 10.80880727 1.64661626 13 3 C14.00488281 4.72412109 14.00488281 4.72412109 14.703125 6.7734375 C14.9609375 7.5159375 15.21875 8.2584375 15.484375 9.0234375 C15.73703125 9.79945313 15.9896875 10.57546875 16.25 11.375 C16.518125 12.14328125 16.78625 12.9115625 17.0625 13.703125 C18.32595685 17.42903347 19 19.98622088 19 24 C17.41531323 23.54636829 15.83230076 23.08688548 14.25 22.625 C12.92742187 22.24214844 12.92742187 22.24214844 11.578125 21.8515625 C5.44490347 19.82574084 5.44490347 19.82574084 4.0234375 17.1875 C3.70246094 16.1046875 3.70246094 16.1046875 3.375 15 C3.13910156 14.20722656 2.90320313 13.41445312 2.66015625 12.59765625 C1.60090628 8.42960162 0.75126113 4.23357742 0 0 Z " fill="#F2F0F0" transform="translate(66,136)"/>
<path d="M0 0 C-1.37265846 4.85837904 -3.43317663 6.01604167 -7.6875 8.5 C-11.48949237 11.54421172 -11.48949237 11.54421172 -13.47851562 15.86914062 C-13.88270073 21.06511058 -13.13798731 26.235946 -12.46923828 31.38427734 C-11.81070948 36.45858093 -11.25261976 41.54274455 -10.69670105 46.62918091 C-10.25078854 50.70702175 -9.79049932 54.78138786 -9.28686523 58.85253906 C-8.25965569 67.41562299 -7.77161276 75.39391476 -9 84 C-9.33 84 -9.66 84 -10 84 C-11.08742674 73.17717567 -12.17120407 62.35399788 -13.24841309 51.53015137 C-13.73017999 46.6926776 -14.21730336 41.85581167 -14.7109375 37.01953125 C-14.8908605 35.22137772 -15.07057721 33.42320352 -15.25 31.625 C-15.36964111 30.48285034 -15.36964111 30.48285034 -15.49169922 29.31762695 C-15.69835228 27.21267696 -15.85677539 25.1101436 -16 23 C-16.07863281 22.15163574 -16.15726563 21.30327148 -16.23828125 20.42919922 C-16.62190766 13.76123113 -16.62190766 13.76123113 -13.59375 10.0546875 C-12.5728125 9.33539063 -11.551875 8.61609375 -10.5 7.875 C-8.96859375 6.75738281 -8.96859375 6.75738281 -7.40625 5.6171875 C-6.6121875 5.08351563 -5.818125 4.54984375 -5 4 C-10.51093788 7.43304327 -15.95087242 10.95518142 -21.3359375 14.58203125 C-22.27671143 15.2147998 -23.21748535 15.84756836 -24.18676758 16.49951172 C-26.09810631 17.78758429 -28.00682198 19.07955806 -29.9128418 20.37548828 C-30.79883057 20.97216309 -31.68481934 21.56883789 -32.59765625 22.18359375 C-33.39695557 22.72556396 -34.19625488 23.26753418 -35.01977539 23.82592773 C-37 25 -37 25 -39 25 C-39 26.98 -39 28.96 -39 31 C-41 28 -41 28 -41 24 C-39.55737305 22.65063477 -39.55737305 22.65063477 -37.51171875 21.44140625 C-36.75117187 20.97887451 -35.990625 20.51634277 -35.20703125 20.03979492 C-34.37558594 19.5522876 -33.54414062 19.06478027 -32.6875 18.5625 C-30.94955525 17.51155342 -29.21394651 16.45673591 -27.48046875 15.3984375 C-26.57989746 14.84897461 -25.67932617 14.29951172 -24.75146484 13.73339844 C-19.37612498 10.34698202 -14.20934199 6.64131334 -9.05737305 2.92602539 C-8.30625244 2.3974292 -7.55513184 1.86883301 -6.78125 1.32421875 C-6.12189453 0.85072998 -5.46253906 0.37724121 -4.78320312 -0.1105957 C-3 -1 -3 -1 0 0 Z " fill="#252525" transform="translate(93,21)"/>
<path d="M0 0 C1.49611057 2.36256309 2.11037326 3.46029348 1.5390625 6.25390625 C1.23742187 7.01574219 0.93578125 7.77757812 0.625 8.5625 C-0.45884045 11.35692341 -1 12.95645926 -1 16 C-0.34 16 0.32 16 1 16 C1 18 1 18 -1 20.125 C-1.66 20.74375 -2.32 21.3625 -3 22 C-2.01 22.33 -1.02 22.66 0 23 C-0.99 23.33 -1.98 23.66 -3 24 C-3.66 23.34 -4.32 22.68 -5 22 C-6.82796601 21.45051478 -6.82796601 21.45051478 -8.9140625 21.1484375 C-9.67460938 21.01953125 -10.43515625 20.890625 -11.21875 20.7578125 C-12.0128125 20.63148438 -12.806875 20.50515625 -13.625 20.375 C-14.42679687 20.2409375 -15.22859375 20.106875 -16.0546875 19.96875 C-18.03527484 19.63865211 -20.01749675 19.31838917 -22 19 C-21.505 14.545 -21.505 14.545 -21 10 C-20.01 11.32 -19.02 12.64 -18 14 C-15.37304 12.04428496 -12.74877646 10.08498344 -10.125 8.125 C-9.37863281 7.56941406 -8.63226563 7.01382813 -7.86328125 6.44140625 C-7.14785156 5.90644531 -6.43242188 5.37148437 -5.6953125 4.8203125 C-4.7055542 4.08192139 -4.7055542 4.08192139 -3.69580078 3.32861328 C-1.88280739 1.96315594 -1.88280739 1.96315594 0 0 Z " fill="#303030" transform="translate(85,162)"/>
<path d="M0 0 C-0.14151828 2.0836309 -0.28837936 4.16689938 -0.4375 6.25 C-0.51871094 7.41015625 -0.59992188 8.5703125 -0.68359375 9.765625 C-0.93247787 12.30977376 -1.28114942 14.55953248 -2 17 C-14.66970387 16.22095672 -14.66970387 16.22095672 -20 14 C-18.68 13.34 -17.36 12.68 -16 12 C-16.33 9.36 -16.66 6.72 -17 4 C-14.73050898 3.32844651 -12.4596039 2.6626037 -10.1875 2 C-8.92292969 1.62875 -7.65835938 1.2575 -6.35546875 0.875 C-3 0 -3 0 0 0 Z " fill="#F2F0F0" transform="translate(131,45)"/>
<path d="M0 0 C2.96406846 2.96406846 3.27177465 6.65318836 4.1875 10.625 C6.14118561 18.77526182 8.32633797 26.83335224 10.6875 34.875 C11.13355591 36.39794678 11.13355591 36.39794678 11.58862305 37.95166016 C12.14374353 39.8322981 12.70429867 41.71134449 13.27148438 43.58837891 C13.86694527 45.55954604 14.44225431 47.53679105 15.01171875 49.515625 C16.05185716 52.1303603 16.88905355 53.22234393 19.125 54.875 C20.548125 55.926875 20.548125 55.926875 22 57 C21.34 57.66 20.68 58.32 20 59 C18.55524014 57.77937479 17.11949236 56.54807874 15.6875 55.3125 C14.88699219 54.62800781 14.08648437 53.94351563 13.26171875 53.23828125 C10.964878 50.96524195 9.62430861 48.77395331 8 46 C6.71214179 44.58231738 5.37760524 43.20564142 4 41.875 C3.319375 41.21242187 2.63875 40.54984375 1.9375 39.8671875 C1.298125 39.25101563 0.65875 38.63484375 0 38 C-1.00223463 37.00223963 -2.0031201 36.0031104 -3 35 C0.73567172 34.23588533 3.34811918 33.92825237 7 35 C5.90794369 27.4534019 4.01591833 20.28370001 1.76489258 13.01586914 C0.54287386 9.03376567 -0.53517988 5.1579115 -1 1 C-0.67 0.67 -0.34 0.34 0 0 Z " fill="#2E2E2E" transform="translate(54,51)"/>
<path d="M0 0 C8.92405385 3.45343133 17.48854423 7.08200603 22 16 C22.75 19.3125 22.75 19.3125 23 23 C23.33576745 24.98237104 23.6910531 26.96150356 24.0625 28.9375 C24.23910156 29.89527344 24.41570312 30.85304687 24.59765625 31.83984375 C24.79681641 32.90912109 24.79681641 32.90912109 25 34 C21.10066049 30.44335779 18.28961229 26.31786178 15.3125 22 C10.85587415 15.59961445 6.29048282 9.31523999 1.546875 3.125 C0 1 0 1 0 0 Z " fill="#EAE8E8" transform="translate(42,115)"/>
<path d="M0 0 C2.32101959 4.30074849 3.146966 8.62247924 4.125 13.375 C4.30675781 14.21289062 4.48851563 15.05078125 4.67578125 15.9140625 C5.60358338 20.35077044 6.22283469 24.43931667 6 29 C7.03640625 28.71125 8.0728125 28.4225 9.140625 28.125 C10.51034396 27.74973453 11.8801397 27.37474921 13.25 27 C14.27287109 26.71382812 14.27287109 26.71382812 15.31640625 26.421875 C18.70600912 25.50042956 21.45778976 25 25 25 C26.43069422 32.29654052 25.33979115 38.73633891 24 46 C21.36819536 42.05229304 22.1991052 39.26019851 22.875 34.8125 C22.97941406 34.06291016 23.08382812 33.31332031 23.19140625 32.54101562 C23.4504328 30.69250796 23.72383966 28.84602568 24 27 C22.53626953 27.433125 22.53626953 27.433125 21.04296875 27.875 C19.75787385 28.25021019 18.47271419 28.62519862 17.1875 29 C15.92292969 29.37125 14.65835938 29.7425 13.35546875 30.125 C10 31 10 31 7 31 C7.33 33.64 7.66 36.28 8 39 C7.01 39.66 6.02 40.32 5 41 C10.61 41.99 16.22 42.98 22 44 C21.67 44.66 21.34 45.32 21 46 C18.27052356 45.69003741 15.54144015 45.37712025 12.8125 45.0625 C12.04357422 44.97548828 11.27464844 44.88847656 10.48242188 44.79882812 C6.61227172 44.35035579 2.80813376 43.8470999 -1 43 C0.485 42.505 0.485 42.505 2 42 C2 41.34 2 40.68 2 40 C1.34 39.67 0.68 39.34 0 39 C2.97 38.505 2.97 38.505 6 38 C5.823479 37.19369141 5.64695801 36.38738281 5.46508789 35.55664062 C4.80438105 32.53055552 4.14687827 29.50379603 3.49145508 26.4765625 C3.07029759 24.53593015 2.64553411 22.59608149 2.22070312 20.65625 C-1.56676136 3.13352273 -1.56676136 3.13352273 0 0 Z " fill="#3A3939" transform="translate(107,18)"/>
<path d="M0 0 C6.93 2.475 6.93 2.475 14 5 C13.67 5.66 13.34 6.32 13 7 C13.20625 7.886875 13.4125 8.77375 13.625 9.6875 C14.00213296 13.01884111 13.80819014 15.2722691 12.34375 18.31640625 C9.48079679 21.9034203 5.28978237 23.6365808 1 25 C-2.625 24.8125 -2.625 24.8125 -5 24 C-3.68 23.67 -2.36 23.34 -1 23 C-1 21.35 -1 19.7 -1 18 C-0.67 19.32 -0.34 20.64 0 22 C2.97 21.01 5.94 20.02 9 19 C8.62488281 18.443125 8.24976563 17.88625 7.86328125 17.3125 C4.47873126 12.26551362 1.18638454 7.17435011 -2 2 C-1.34 1.34 -0.68 0.68 0 0 Z " fill="#1F1E1E" transform="translate(122,163)"/>
<path d="M0 0 C6.93 2.475 6.93 2.475 14 5 C9.5 10.625 9.5 10.625 6.546875 12.67578125 C5.928125 13.11083984 5.309375 13.54589844 4.671875 13.99414062 C3.72054687 14.64672852 3.72054687 14.64672852 2.75 15.3125 C1.77546875 15.9940918 1.77546875 15.9940918 0.78125 16.68945312 C-0.80792899 17.79954139 -2.40334173 18.90069651 -4 20 C-5.60011528 15.96932986 -4.34294927 12.89843242 -3.125 8.875 C-2.75632812 7.63492188 -2.38765625 6.39484375 -2.0078125 5.1171875 C-1 2 -1 2 0 0 Z " fill="#F0EEEE" transform="translate(71,157)"/>
<path d="M0 0 C0.66 0.66 1.32 1.32 2 2 C1.34 2.99 0.68 3.98 0 5 C0.26056466 13.55265187 3.23878863 22.44602634 5.32250977 30.70068359 C5.53834717 31.57160645 5.75418457 32.4425293 5.9765625 33.33984375 C6.17330566 34.11706787 6.37004883 34.89429199 6.57275391 35.69506836 C7.03266745 38.17623621 7.0729165 40.4821542 7 43 C6.01 42.505 6.01 42.505 5 42 C4.33319091 39.76744381 3.77818697 37.50124258 3.2734375 35.2265625 C3.12089508 34.54701508 2.96835266 33.86746765 2.81118774 33.16732788 C2.48963244 31.7273391 2.17214832 30.28643615 1.85839844 28.84472656 C1.37809001 26.63918907 0.88550373 24.43668392 0.390625 22.234375 C-2 11.47293964 -2 11.47293964 -2 8 C-9.28638191 12.77751781 -16.44264497 17.67654287 -23.45361328 22.84912109 C-27.78375405 26 -27.78375405 26 -30 26 C-29.67 27.32 -29.34 28.64 -29 30 C-29.66 30 -30.32 30 -31 30 C-31.33 29.34 -31.66 28.68 -32 28 C-36.43866361 26.0977156 -40.20291909 25.80811676 -45 26 C-45 25.34 -45 24.68 -45 24 C-41.46374726 22.93912418 -38.94583203 23.17893314 -35.40234375 23.84765625 C-28.93964326 24.53396592 -25.41968461 21.80338248 -20.4375 18 C-19.25897461 17.15115234 -19.25897461 17.15115234 -18.05664062 16.28515625 C-15.67679041 14.55756128 -13.33789403 12.78383787 -11 11 C-9.75114014 10.07960938 -9.75114014 10.07960938 -8.47705078 9.140625 C-7.67122559 8.53734375 -6.86540039 7.9340625 -6.03515625 7.3125 C-5.30820557 6.77238281 -4.58125488 6.23226562 -3.83227539 5.67578125 C-1.9019113 3.91028903 -0.99974997 2.39704989 0 0 Z " fill="#2C2C2C" transform="translate(110,111)"/>
<path d="M0 0 C3.02129951 1.89430683 5.53833693 4.13497882 8.0859375 6.60546875 C12.98325799 11.23344429 18.02115379 15.5499247 23.28125 19.765625 C25.4609375 21.54296875 25.4609375 21.54296875 27.4609375 23.54296875 C27.4403125 24.78046875 27.4196875 26.01796875 27.3984375 27.29296875 C27.47569717 29.48813448 27.47569717 29.48813448 28.4609375 31.54296875 C31.18945401 33.51715605 33.93673558 34.90680343 36.9921875 36.31640625 C39.4609375 37.54296875 39.4609375 37.54296875 40.4609375 39.54296875 C35.4885953 38.05126609 31.04248011 35.93839458 26.4609375 33.54296875 C26.1309375 34.53296875 25.8009375 35.52296875 25.4609375 36.54296875 C25.52796875 35.80433594 25.595 35.06570312 25.6640625 34.3046875 C25.74324255 29.11179621 25.42894695 25.74896059 22.109375 21.61328125 C19.58754879 19.19723634 16.89725411 17.00095978 14.14355469 14.85546875 C12.47388629 13.55306926 10.84355445 12.21327723 9.21875 10.85546875 C6.65366258 8.72344804 4.06888491 6.62213942 1.4609375 4.54296875 C0.8009375 5.86296875 0.1409375 7.18296875 -0.5390625 8.54296875 C-0.8690625 6.56296875 -1.1990625 4.58296875 -1.5390625 2.54296875 C-2.29832031 3.19265625 -3.05757812 3.84234375 -3.83984375 4.51171875 C-4.83371094 5.34703125 -5.82757813 6.18234375 -6.8515625 7.04296875 C-7.83769531 7.87828125 -8.82382813 8.71359375 -9.83984375 9.57421875 C-12.5390625 11.54296875 -12.5390625 11.54296875 -15.5390625 11.54296875 C-15.2756781 8.30919358 -14.49732502 7.50673652 -11.9921875 5.33203125 C-10.93515625 4.61789063 -9.878125 3.90375 -8.7890625 3.16796875 C-7.74234375 2.43835938 -6.695625 1.70875 -5.6171875 0.95703125 C-2.5390625 -0.45703125 -2.5390625 -0.45703125 0 0 Z " fill="#222222" transform="translate(106.5390625,11.45703125)"/>
<path d="M0 0 C4.46446679 4.15685921 7.91220462 8.78572439 11.4375 13.75 C11.98470703 14.51054687 12.53191406 15.27109375 13.09570312 16.0546875 C16.84738677 21.29372502 20.45737708 26.61770763 24 32 C23.79375 30.88625 23.5875 29.7725 23.375 28.625 C23.25125 27.42875 23.1275 26.2325 23 25 C23.66 24.34 24.32 23.68 25 23 C26.32 28.28 27.64 33.56 29 39 C28.34 39 27.68 39 27 39 C27 39.66 27 40.32 27 41 C25.515 40.505 25.515 40.505 24 40 C24.66 40 25.32 40 26 40 C25.505 39.21625 25.01 38.4325 24.5 37.625 C23 35 23 35 23 33 C22.34 33 21.68 33 21 33 C20.71125 33.721875 20.4225 34.44375 20.125 35.1875 C19.40062122 36.99844695 18.632588 38.79283643 17.8125 40.5625 C16.87780738 43.36657787 16.82519072 44.31472165 18 47 C19.31866272 48.678298 20.65080468 50.34614767 22 52 C22 52.66 22 53.32 22 54 C22.66 54 23.32 54 24 54 C23.67 55.32 23.34 56.64 23 58 C21.89539041 56.58367866 20.79133212 55.16692736 19.6875 53.75 C19.07261719 52.96109375 18.45773438 52.1721875 17.82421875 51.359375 C16.92123047 50.19148438 16.92123047 50.19148438 16 49 C15.41734375 48.28972656 14.8346875 47.57945312 14.234375 46.84765625 C13.82703125 46.23792969 13.4196875 45.62820312 13 45 C13.6198709 42.45164185 14.67832837 40.51068307 16.0703125 38.30078125 C18.40524635 34.70006458 18.40524635 34.70006458 18.78613281 30.55615234 C17.94413425 27.81834956 16.87364294 25.94389425 15.234375 23.6015625 C14.67363281 22.79203125 14.11289062 21.9825 13.53515625 21.1484375 C12.94605469 20.31570312 12.35695313 19.48296875 11.75 18.625 C10.88955078 17.3875 10.88955078 17.3875 10.01171875 16.125 C7.85658326 13.03220875 5.69580227 9.94645023 3.46289062 6.90917969 C0 2.19349436 0 2.19349436 0 0 Z " fill="#2D2D2D" transform="translate(42,116)"/>
<path d="M0 0 C5.36140511 1.31973049 10.44551002 3.52080378 15.5390625 5.625 C13.74060672 11.76972392 11.82505407 17.52326899 6.19140625 20.953125 C4.96298906 21.61246713 3.72433241 22.25305861 2.4765625 22.875 C-2.96948704 25.59394315 -2.96948704 25.59394315 -7.4609375 29.625 C-7.7909375 27.975 -8.1209375 26.325 -8.4609375 24.625 C-7.8009375 24.625 -7.1409375 24.625 -6.4609375 24.625 C-6.1309375 21.325 -5.8009375 18.025 -5.4609375 14.625 C-5.1309375 14.625 -4.8009375 14.625 -4.4609375 14.625 C-4.4609375 17.595 -4.4609375 20.565 -4.4609375 23.625 C-1.1609375 21.645 2.1390625 19.665 5.5390625 17.625 C5.2090625 16.965 4.8790625 16.305 4.5390625 15.625 C5.8590625 15.955 7.1790625 16.285 8.5390625 16.625 C9.61431444 13.97271188 10.63362401 11.34131546 11.5390625 8.625 C7.9090625 8.955 4.2790625 9.285 0.5390625 9.625 C3.4567125 7.6799 5.16443535 7.17223683 8.5390625 6.625 C6.03657385 4.95667423 4.12757063 4.00118326 1.3515625 3 C0.63613281 2.73960937 -0.07929688 2.47921875 -0.81640625 2.2109375 C-1.35910156 2.01757812 -1.90179688 1.82421875 -2.4609375 1.625 C-2.4609375 3.605 -2.4609375 5.585 -2.4609375 7.625 C-2.7909375 7.625 -3.1209375 7.625 -3.4609375 7.625 C-3.4609375 5.645 -3.4609375 3.665 -3.4609375 1.625 C-5.1109375 1.625 -6.7609375 1.625 -8.4609375 1.625 C-5.14740641 -0.58402072 -3.83251438 -0.57415946 0 0 Z " fill="#1E1E1E" transform="translate(142.4609375,144.375)"/>
<path d="M0 0 C0.66 0 1.32 0 2 0 C2.33 6.27 2.66 12.54 3 19 C-7.75 18.125 -7.75 18.125 -10 17 C-8.51390706 12.82810366 -6.44697825 9.37146174 -4 5.6875 C-3.29875 4.61886719 -2.5975 3.55023438 -1.875 2.44921875 C-1.25625 1.64097656 -0.6375 0.83273438 0 0 Z " fill="#EFEEEE" transform="translate(117,166)"/>
<path d="M0 0 C-4.95 7.425 -4.95 7.425 -10 15 C-14.65572054 12.67213973 -16.79064672 9.93875175 -20 6 C-17.23371889 4.80077976 -14.462845 3.61539501 -11.6875 2.4375 C-10.90181641 2.09525391 -10.11613281 1.75300781 -9.30664062 1.40039062 C-8.54931641 1.08134766 -7.79199219 0.76230469 -7.01171875 0.43359375 C-5.96697388 -0.01415405 -5.96697388 -0.01415405 -4.90112305 -0.47094727 C-3 -1 -3 -1 0 0 Z " fill="#EEECEC" transform="translate(116,166)"/>
<path d="M0 0 C1 2 1 2 0.00390625 5.0390625 C-0.47175781 6.22242188 -0.94742188 7.40578125 -1.4375 8.625 C-1.91058594 9.81351563 -2.38367188 11.00203125 -2.87109375 12.2265625 C-3.24363281 13.14179688 -3.61617187 14.05703125 -4 15 C-8.8333472 15.08333357 -13.23692563 14.95261487 -18 14 C-14.36364015 10.14449982 -10.58308152 7.13258862 -6.1875 4.1875 C-5.59001953 3.78080078 -4.99253906 3.37410156 -4.37695312 2.95507812 C-2.92125436 1.96520297 -1.46108826 0.98190265 0 0 Z " fill="#ECEAEA" transform="translate(84,166)"/>
<path d="M0 0 C0.33 0 0.66 0 1 0 C1.74632477 6.75695941 2.47469508 13.51568895 3.19116211 20.27587891 C3.43647085 22.5709107 3.68574582 24.86552243 3.93920898 27.15966797 C4.30479559 30.4751852 4.65564567 33.79199836 5.00390625 37.109375 C5.17570152 38.62419464 5.17570152 38.62419464 5.35096741 40.1696167 C6.07413742 47.24479655 5.81196688 53.93850992 5 61 C4.67 61 4.34 61 4 61 C3.88406494 59.82493896 3.76812988 58.64987793 3.64868164 57.43920898 C3.21596718 53.05754623 2.78125141 48.6760839 2.34594727 44.29467773 C2.15823104 42.4024788 1.97104929 40.51022675 1.78442383 38.61791992 C1.51525926 35.88966787 1.24413946 33.16161593 0.97265625 30.43359375 C0.89032242 29.59477158 0.80798859 28.7559494 0.72315979 27.89170837 C0.25820275 23.24082117 -0.32114693 18.62568189 -1 14 C-1.28428926 9.24233556 -0.93539769 4.67698847 0 0 Z " fill="#3D3C3C" transform="translate(79,44)"/>
<path d="M0 0 C0.33 0 0.66 0 1 0 C1.66 3.3 2.32 6.6 3 10 C3.98742187 9.3503125 4.97484375 8.700625 5.9921875 8.03125 C7.28630293 7.18726167 8.58058229 6.34352465 9.875 5.5 C10.52597656 5.07074219 11.17695312 4.64148438 11.84765625 4.19921875 C16.7734375 1 16.7734375 1 19 1 C19 1.66 19 2.32 19 3 C17.55395508 4.16992188 17.55395508 4.16992188 15.51953125 5.46875 C14.77300293 5.95311523 14.02647461 6.43748047 13.25732422 6.93652344 C12.45053223 7.4524707 11.64374023 7.96841797 10.8125 8.5 C2.90404678 13.65093143 -4.62776752 19.11263414 -12 25 C-12.33 24.34 -12.66 23.68 -13 23 C-14.98 23 -16.96 23 -19 23 C-19 22.67 -19 22.34 -19 22 C-17.1746875 21.87625 -17.1746875 21.87625 -15.3125 21.75 C-11.18503799 21.26054875 -9.09073762 19.81802548 -6 17 C-5.34 17 -4.68 17 -4 17 C-5.65 14.69 -7.3 12.38 -9 10 C-8.4225 10.309375 -7.845 10.61875 -7.25 10.9375 C-4.78094132 12.19285032 -4.78094132 12.19285032 -1 13 C-0.67 8.71 -0.34 4.42 0 0 Z " fill="#282727" transform="translate(84,99)"/>
<path d="M0 0 C7.59 0 15.18 0 23 0 C20.46066018 2.53933982 18.02475556 3.36847147 14.6875 4.6875 C13.55699219 5.14511719 12.42648438 5.60273438 11.26171875 6.07421875 C7.90484084 7.02700925 6.25997734 7.1369316 3 6 C0 2.79310345 0 2.79310345 0 0 Z " fill="#E4E2E2" transform="translate(90,163)"/>
<path d="M0 0 C-0.33 3.63 -0.66 7.26 -1 11 C-6.34844008 10.46515599 -10.35796103 8.53309233 -15 6 C-13.54345589 3.08691178 -11.64612352 2.94547684 -8.625 1.875 C-7.64789063 1.52179688 -6.67078125 1.16859375 -5.6640625 0.8046875 C-3 0 -3 0 0 0 Z " fill="#EDEBEB" transform="translate(137,157)"/>
<path d="M0 0 C1.65 0 3.3 0 5 0 C5 0.99 5 1.98 5 3 C6.59414291 4.73700651 6.59414291 4.73700651 8.6875 6.375 C11.96864369 9.11997101 15.02336286 11.93034295 18 15 C17.67 15.66 17.34 16.32 17 17 C16.58637207 16.61142822 16.17274414 16.22285645 15.74658203 15.82250977 C13.87495442 14.06677485 12.00002666 12.31460417 10.125 10.5625 C9.47402344 9.95083984 8.82304688 9.33917969 8.15234375 8.70898438 C7.52714844 8.12568359 6.90195312 7.54238281 6.2578125 6.94140625 C5.6817627 6.40201416 5.10571289 5.86262207 4.51220703 5.30688477 C3.0159761 3.90528819 3.0159761 3.90528819 1 3 C0.82984375 3.65484375 0.6596875 4.3096875 0.484375 4.984375 C-1.4025797 12.09056609 -3.60983439 19.04789392 -6 26 C-6.66 25.67 -7.32 25.34 -8 25 C-5.85406445 16.45115106 -3.0505873 8.25949525 0 0 Z " fill="#282727" transform="translate(47,84)"/>
<path d="M0 0 C10 10 10 10 10 14 C4.375 17 4.375 17 1 17 C0.67 11.39 0.34 5.78 0 0 Z " fill="#EFEDED" transform="translate(121,168)"/>
<path d="M0 0 C3.48872415 1.16290805 4.09976864 2.13967609 6.1875 5.0625 C6.71730469 5.79597656 7.24710938 6.52945313 7.79296875 7.28515625 C8.19128906 7.85105469 8.58960937 8.41695312 9 9 C7.10507994 9.33848652 5.20901534 9.67056911 3.3125 10 C2.25675781 10.185625 1.20101562 10.37125 0.11328125 10.5625 C-2.64904062 10.95068074 -5.21742043 11.08259976 -8 11 C-7.04454634 9.53977837 -6.08553322 8.08188532 -5.125 6.625 C-4.59132813 5.81289062 -4.05765625 5.00078125 -3.5078125 4.1640625 C-2 2 -2 2 0 0 Z " fill="#ECEAEA" transform="translate(94,174)"/>
<path d="M0 0 C3.11547441 0.67883043 5.85137721 1.74106902 8.75 3.0625 C9.54921875 3.42472656 10.3484375 3.78695312 11.171875 4.16015625 C11.77515625 4.43730469 12.3784375 4.71445313 13 5 C10.75848118 7.24151882 8.9932888 7.96301325 6.0625 9.125 C5.18722656 9.47820312 4.31195313 9.83140625 3.41015625 10.1953125 C1 11 1 11 -2 11 C-1.40049704 7.31733897 -0.75241109 3.65456815 0 0 Z " fill="#EEECEC" transform="translate(123,149)"/>
<path d="M0 0 C0.99 0.33 1.98 0.66 3 1 C1.62261865 5.76722406 -0.47827796 7.22318438 -4.5625 9.875 C-8.11390355 12.60577897 -10.21890243 14.49067937 -10.9453125 18.91796875 C-11.26984374 22.61928463 -11.21014391 26.29071565 -11 30 C-11.33 30 -11.66 30 -12 30 C-12.41770428 28.01590468 -12.72295572 26.00857103 -13 24 C-13.14953125 23.23816406 -13.2990625 22.47632812 -13.453125 21.69140625 C-13.79898555 18.77434556 -13.83074871 16.83556575 -13 14 C-9.70179496 10.44445094 -6.01631596 7.69927728 -2 5 C-2.99 5.33 -3.98 5.66 -5 6 C-5.33 5.34 -5.66 4.68 -6 4 C-3.1875 1.9375 -3.1875 1.9375 0 0 Z " fill="#232323" transform="translate(90,20)"/>
<path d="M0 0 C0.8353125 1.2065625 0.8353125 1.2065625 1.6875 2.4375 C4.32295891 5.35787339 5.17770946 5.69310076 9 6 C11.61059413 5.23535835 11.61059413 5.23535835 14.125 4 C18.68280255 1.89426752 18.68280255 1.89426752 22 3 C19.61874536 5.38125464 17.66142433 6.00186241 14.5 7.125 C13.03046875 7.65480469 13.03046875 7.65480469 11.53125 8.1953125 C9 9 9 9 7 9 C7 9.66 7 10.32 7 11 C4.5 12.625 4.5 12.625 2 14 C1.34 13.34 0.68 12.68 0 12 C0.99 10.68 1.98 9.36 3 8 C2.2575 7.071875 2.2575 7.071875 1.5 6.125 C0 4 0 4 0 2 C-0.66 1.67 -1.32 1.34 -2 1 C-1.34 0.67 -0.68 0.34 0 0 Z " fill="#1D1D1D" transform="translate(89,163)"/>
<path d="M0 0 C4.47238653 1.41807378 8.71146306 3.11304374 13 5 C12.25 11.75 12.25 11.75 10 14 C8.33041937 11.85637773 6.66423643 9.71026458 5 7.5625 C4.52304688 6.95083984 4.04609375 6.33917969 3.5546875 5.70898438 C0 1.11328125 0 1.11328125 0 0 Z " fill="#E8E7E7" transform="translate(122,165)"/>
<path d="M0 0 C-1 7.42857143 -1 7.42857143 -2 11 C-5.79379058 9.50958227 -7.68343758 7.30937488 -10 4 C-10 3.34 -10 2.68 -10 2 C-6.38026598 0.68373308 -3.90432869 0 0 0 Z " fill="#EEECEC" transform="translate(68,158)"/>
<path d="M0 0 C0.66 0.66 1.32 1.32 2 2 C1.9765625 4.3828125 1.9765625 4.3828125 1.625 7.125 C1.51414063 8.03507813 1.40328125 8.94515625 1.2890625 9.8828125 C1.14597656 10.93082031 1.14597656 10.93082031 1 12 C0.34 12 -0.32 12 -1 12 C-1 11.34 -1 10.68 -1 10 C-1.66 10 -2.32 10 -3 10 C-3 10.99 -3 11.98 -3 13 C-12.9 13 -22.8 13 -33 13 C-33 12.67 -33 12.34 -33 12 C-23.43 12 -13.86 12 -4 12 C-4.33 9.69 -4.66 7.38 -5 5 C-4.34 4.34 -3.68 3.68 -3 3 C-2.67 4.32 -2.34 5.64 -2 7 C-1.34 4.69 -0.68 2.38 0 0 Z " fill="#606060" transform="translate(121,149)"/>
<path d="M0 0 C0.66 0 1.32 0 2 0 C3.32 2.31 4.64 4.62 6 7 C2.7 9.64 -0.6 12.28 -4 15 C-5 13 -5 13 -4.00390625 9.9609375 C-3.52824219 8.77757812 -3.05257812 7.59421875 -2.5625 6.375 C-2.08941406 5.18648437 -1.61632812 3.99796875 -1.12890625 2.7734375 C-0.75636719 1.85820312 -0.38382812 0.94296875 0 0 Z " fill="#E8E6E6" transform="translate(87,165)"/>
<path d="M0 0 C3.70500184 1.48200074 6.67262 2.908504 10 5 C2.28571429 11 2.28571429 11 -1 11 C-0.67 7.37 -0.34 3.74 0 0 Z " fill="#E9E8E8" transform="translate(139,157)"/>
<path d="M0 0 C3.3 0.33 6.6 0.66 10 1 C13.125 9.625 13.125 9.625 12 13 C9.99698146 11.0238076 7.99750133 9.04425526 6 7.0625 C5.42765625 6.49853516 4.8553125 5.93457031 4.265625 5.35351562 C2.82474495 3.92121224 1.41012857 2.46258871 0 1 C0 0.67 0 0.34 0 0 Z " fill="#E2E1E1" transform="translate(53,87)"/>
<path d="M0 0 C0.33 0.66 0.66 1.32 1 2 C0.22265625 3.7265625 0.22265625 3.7265625 -0.9375 5.625 C-1.618125 6.73875 -2.29875 7.8525 -3 9 C-7.30691203 7.52334445 -9.19540381 6.04367695 -13 3 C-8.71 2.01 -4.42 1.02 0 0 Z " fill="#E2E1E1" transform="translate(154,152)"/>
<path d="M0 0 C2.31559141 4.30081783 3.18527215 8.62798577 4.1875 13.375 C4.47270508 14.63183594 4.47270508 14.63183594 4.76367188 15.9140625 C5.76126019 20.59646965 6.21162743 24.2615335 5 29 C4.67 29 4.34 29 4 29 C3.12753597 25.29572856 2.28032605 21.58611734 1.4375 17.875 C1.19064453 16.82828125 0.94378906 15.7815625 0.68945312 14.703125 C-1.47053761 5.08964513 -1.47053761 5.08964513 0 0 Z " fill="#3D3D3D" transform="translate(107,18)"/>
<path d="M0 0 C4.60853797 0.72008406 8.67237409 2.31295939 13 4 C10.41073669 6.58926331 8.97294721 6.37398043 5.375 6.625 C4.37210938 6.69976562 3.36921875 6.77453125 2.3359375 6.8515625 C1.17964844 6.92503906 1.17964844 6.92503906 0 7 C0 4.69 0 2.38 0 0 Z " fill="#E3E1E1" transform="translate(140,146)"/>
<path d="M0 0 C1.96713319 3.29316726 2.04271932 3.80252391 1.171875 7.828125 C0.71263026 9.30673379 0.23807754 10.78065661 -0.25 12.25 C-0.71515508 13.71302968 -1.1787042 15.17657095 -1.640625 16.640625 C-1.86943359 17.35669922 -2.09824219 18.07277344 -2.33398438 18.81054688 C-3.35792653 22.17664411 -4.17959803 25.57907856 -5 29 C-6.68595904 26.45776523 -7.04781238 25.31631457 -6.58447266 22.25097656 C-6.2807373 21.22456055 -5.97700195 20.19814453 -5.6640625 19.140625 C-5.18066406 17.46806641 -5.18066406 17.46806641 -4.6875 15.76171875 C-4.336875 14.60285156 -3.98625 13.44398437 -3.625 12.25 C-3.28210938 11.07566406 -2.93921875 9.90132812 -2.5859375 8.69140625 C-1.73680785 5.79021329 -0.87442667 2.89364944 0 0 Z " fill="#3A3A3A" transform="translate(134,77)"/>
<path d="M0 0 C1.32 0.66 2.64 1.32 4 2 C2.02 4.97 0.04 7.94 -2 11 C-0.68 11.33 0.64 11.66 2 12 C-0.31 12 -2.62 12 -5 12 C-5.33 10.35 -5.66 8.7 -6 7 C-4.68 6.34 -3.36 5.68 -2 5 C-2.33 4.01 -2.66 3.02 -3 2 C-2.01 1.34 -1.02 0.68 0 0 Z " fill="#323232" transform="translate(88,175)"/>
<path d="M0 0 C-0.33 2.31 -0.66 4.62 -1 7 C-2.4589426 6.52269162 -3.91713496 6.04308958 -5.375 5.5625 C-6.18710938 5.29566406 -6.99921875 5.02882812 -7.8359375 4.75390625 C-10 4 -10 4 -12 3 C-12 2.34 -12 1.68 -12 1 C-7.95858806 0.36605303 -4.0934693 -0.12404452 0 0 Z " fill="#E2E0E0" transform="translate(139,146)"/>
<path d="M0 0 C4.62 1.65 9.24 3.3 14 5 C10 7 10 7 7.640625 6.3203125 C5.42708333 5.21354167 3.21354167 4.10677083 1 3 C3.31 5.97 5.62 8.94 8 12 C7.34 12.66 6.68 13.32 6 14 C3.36 10.37 0.72 6.74 -2 3 C-1.34 2.01 -0.68 1.02 0 0 Z " fill="#2B2A2A" transform="translate(122,163)"/>
<path d="M0 0 C-0.33 0.66 -0.66 1.32 -1 2 C7.415 3.485 7.415 3.485 16 5 C15.67 5.66 15.34 6.32 15 7 C12.27052356 6.69003741 9.54144015 6.37712025 6.8125 6.0625 C5.65911133 5.93198242 5.65911133 5.93198242 4.48242188 5.79882812 C0.61227172 5.35035579 -3.19186624 4.8470999 -7 4 C-6.01 3.67 -5.02 3.34 -4 3 C-4 2.34 -4 1.68 -4 1 C-4.66 0.67 -5.32 0.34 -6 0 C-3 -1 -3 -1 0 0 Z " fill="#363636" transform="translate(113,57)"/>
<path d="M0 0 C2 2 2 2 2.23046875 4.86328125 C2.20919922 6.57064453 2.20919922 6.57064453 2.1875 8.3125 C2.17783203 10.00826172 2.17783203 10.00826172 2.16796875 11.73828125 C2.02015783 14.60856308 1.65474022 17.20818772 1 20 C-3.33273814 20.92844389 -6.66726186 20.92844389 -11 20 C-6.8204355 17.21362367 -4.85331323 18.20437488 0 19 C-0.2475 17.7625 -0.2475 17.7625 -0.5 16.5 C-1.2999271 10.9005103 -1.38349789 5.53399154 0 0 Z " fill="#555454" transform="translate(120,166)"/>
<path d="M0 0 C1.17791932 3.53375797 0.75415072 4.44851107 -0.43359375 7.88671875 C-0.9121582 9.2934082 -0.9121582 9.2934082 -1.40039062 10.72851562 C-1.74263672 11.70498047 -2.08488281 12.68144531 -2.4375 13.6875 C-2.77587891 14.67556641 -3.11425781 15.66363281 -3.46289062 16.68164062 C-4.30059974 19.12397565 -5.14657083 21.56312271 -6 24 C-6.66 23.67 -7.32 23.34 -8 23 C-6.05797655 14.97928527 -3.33160505 7.54549287 0 0 Z " fill="#242323" transform="translate(47,86)"/>
<path d="M0 0 C0.66 0 1.32 0 2 0 C4.29648649 2.5614657 5 3.47967572 5 7 C2.03 7.66 -0.94 8.32 -4 9 C-2.94124926 5.59687262 -1.99097846 2.98646769 0 0 Z " fill="#EAE8E8" transform="translate(63,149)"/>
<path d="M0 0 C0.9684759 3.87390359 1.04960955 4.7574308 0.00390625 8.328125 C-0.33930664 9.52695313 -0.33930664 9.52695313 -0.68945312 10.75 C-0.93630859 11.575 -1.18316406 12.4 -1.4375 13.25 C-1.68048828 14.09046875 -1.92347656 14.9309375 -2.17382812 15.796875 C-2.77373949 17.86715734 -3.38570819 19.93393897 -4 22 C-5.32 22.33 -6.64 22.66 -8 23 C-5.36 15.41 -2.72 7.82 0 0 Z " fill="#2F2F2F" transform="translate(146,122)"/>
<path d="M0 0 C2.01078066 3.50575238 2.79280998 6.99930785 3.625 10.9375 C3.88539062 12.14277344 4.14578125 13.34804687 4.4140625 14.58984375 C4.91307139 17.49407549 5.12243178 20.06720235 5 23 C4.34 22.67 3.68 22.34 3 22 C2.16325732 19.24436685 1.45375829 16.55116439 0.8125 13.75 C0.62236328 12.98558594 0.43222656 12.22117188 0.23632812 11.43359375 C-0.72903292 7.30854543 -1.30501946 4.15611292 0 0 Z " fill="#353535" transform="translate(112,131)"/>
<path d="M0 0 C2 1 4 2 6 3 C6 3.66 6 4.32 6 5 C6.66 5.33 7.32 5.66 8 6 C4.37 8.97 0.74 11.94 -3 15 C-3.33 14.34 -3.66 13.68 -4 13 C-5.98 13 -7.96 13 -10 13 C-10 12.67 -10 12.34 -10 12 C-8.1746875 11.87625 -8.1746875 11.87625 -6.3125 11.75 C-2.18503799 11.26054875 -0.09073762 9.81802548 3 7 C3.66 7 4.32 7 5 7 C3.35 4.69 1.7 2.38 0 0 Z " fill="#191919" transform="translate(75,109)"/>
<path d="M0 0 C0.66 0.66 1.32 1.32 2 2 C0.23669281 3.5088401 -1.53590397 5.0068298 -3.3125 6.5 C-4.29863281 7.3353125 -5.28476563 8.170625 -6.30078125 9.03125 C-9 11 -9 11 -12 11 C-11.84765625 9.234375 -11.84765625 9.234375 -11 7 C-8.49609375 5.078125 -8.49609375 5.078125 -5.4375 3.25 C-4.42558594 2.63640625 -3.41367188 2.0228125 -2.37109375 1.390625 C-1.58863281 0.93171875 -0.80617188 0.4728125 0 0 Z " fill="#161515" transform="translate(103,12)"/>
<path d="M0 0 C0.66 0.33 1.32 0.66 2 1 C2 1.99 2 2.98 2 4 C10.25 4 18.5 4 27 4 C27 4.33 27 4.66 27 5 C18.42 5.33 9.84 5.66 1 6 C0.67 6.66 0.34 7.32 0 8 C-0.79953138 4.71303767 -1.09658936 3.28976808 0 0 Z " fill="#010101" transform="translate(86,158)"/>
<path d="M0 0 C2.70334057 2.70334057 3.23864421 5.71917969 4.1875 9.3125 C4.37763672 9.97701172 4.56777344 10.64152344 4.76367188 11.32617188 C5.80939929 15.22739111 6.18074119 18.11182678 5 22 C2.8130364 17.89965834 1.85237286 13.81361034 0.8125 9.3125 C0.62236328 8.52810547 0.43222656 7.74371094 0.23632812 6.93554688 C-0.22456477 4.96782333 -0.61826506 2.98459987 -1 1 C-0.67 0.67 -0.34 0.34 0 0 Z " fill="#383737" transform="translate(54,51)"/>
<path d="M0 0 C1 4 1 4 1.3125 5.9375 C2.26441753 8.79325258 4.11152996 10.68510124 6 13 C6 13.66 6 14.32 6 15 C6.66 15 7.32 15 8 15 C7.67 16.32 7.34 17.64 7 19 C5.89539041 17.58367866 4.79133212 16.16692736 3.6875 14.75 C2.76517578 13.56664062 2.76517578 13.56664062 1.82421875 12.359375 C1.22222656 11.58078125 0.62023438 10.8021875 0 10 C-0.58652344 9.29746094 -1.17304687 8.59492188 -1.77734375 7.87109375 C-2.18082031 7.25363281 -2.58429687 6.63617188 -3 6 C-2.33228817 3.60736593 -1.77902615 1.77902615 0 0 Z " fill="#1A1A1A" transform="translate(58,155)"/>
<path d="M0 0 C3.3 0 6.6 0 10 0 C8.68 2.31 7.36 4.62 6 7 C1.125 2.25 1.125 2.25 0 0 Z " fill="#EEECEC" transform="translate(60,123)"/>
<path d="M0 0 C0.66 0.33 1.32 0.66 2 1 C1.42934122 7.41991126 -0.67344909 13.01589463 -3 19 C-3.33 19 -3.66 19 -4 19 C-3.855625 17.865625 -3.71125 16.73125 -3.5625 15.5625 C-2.99698633 11.04646944 -2.49225191 6.52452819 -2 2 C-1.34 2 -0.68 2 0 2 C0 1.34 0 0.68 0 0 Z " fill="#2E2E2E" transform="translate(159,77)"/>
<path d="M0 0 C1.67641098 4.09086452 0.2409319 7.71511018 -0.9375 11.75 C-1.13279297 12.44738281 -1.32808594 13.14476563 -1.52929688 13.86328125 C-2.0108246 15.57798973 -2.50425157 17.28934877 -3 19 C-4.5625 17.1875 -4.5625 17.1875 -6 15 C-5 12 -5 12 -4.125 10.3125 C-2.49593957 6.96387578 -1.28183693 3.4959189 0 0 Z " fill="#232222" transform="translate(127,104)"/>
<path d="M0 0 C0.99 0.33 1.98 0.66 3 1 C4.421875 3.984375 4.421875 3.984375 5.75 7.75 C6.19859375 8.98234375 6.6471875 10.2146875 7.109375 11.484375 C7.97832059 14.91442339 8.04051649 16.67542292 7 20 C6.67 20 6.34 20 6 20 C5.73445313 19.05898437 5.46890625 18.11796875 5.1953125 17.1484375 C4.84210938 15.90320313 4.48890625 14.65796875 4.125 13.375 C3.77695313 12.14523438 3.42890625 10.91546875 3.0703125 9.6484375 C2.11833626 6.40337981 1.09288782 3.19989678 0 0 Z " fill="#383838" transform="translate(79,141)"/>
<path d="M0 0 C0.33 0 0.66 0 1 0 C1.22212255 2.74951693 1.42815588 5.49865612 1.625 8.25 C1.68945312 9.02730469 1.75390625 9.80460937 1.8203125 10.60546875 C2.30707097 17.72431144 2.30707097 17.72431144 0 21 C-1.1936095 13.83834298 -1.43791484 7.18957421 0 0 Z " fill="#504F4F" transform="translate(79,44)"/>
<path d="M0 0 C0.33 1.32 0.66 2.64 1 4 C1.99 3.67 2.98 3.34 4 3 C4 5 4 5 2 7.125 C1.34 7.74375 0.68 8.3625 0 9 C0.99 9.33 1.98 9.66 3 10 C2.01 10.33 1.02 10.66 0 11 C-2.6875 9.0625 -2.6875 9.0625 -5 7 C-4.01 7 -3.02 7 -2 7 C-1.855625 6.030625 -1.71125 5.06125 -1.5625 4.0625 C-1 1 -1 1 0 0 Z " fill="#222121" transform="translate(82,175)"/>
<path d="M0 0 C4.06498881 1.37184347 6.67396561 3.22068459 9.8125 6.125 C10.99779297 7.21167969 10.99779297 7.21167969 12.20703125 8.3203125 C12.79871094 8.87460937 13.39039063 9.42890625 14 10 C13.34 10.66 12.68 11.32 12 12 C9.99698881 10.19073245 7.99751914 8.377813 6 6.5625 C5.42765625 6.04623047 4.8553125 5.52996094 4.265625 4.99804688 C2.82480421 3.6858708 1.41014216 2.34509096 0 1 C0 0.67 0 0.34 0 0 Z " fill="#2E2D2D" transform="translate(119,24)"/>
<path d="M0 0 C0.66 0.33 1.32 0.66 2 1 C0.43122326 2.5358444 -1.15556154 4.05331331 -2.75 5.5625 C-3.63171875 6.40941406 -4.5134375 7.25632812 -5.421875 8.12890625 C-8 10 -8 10 -10.328125 9.77734375 C-10.87984375 9.52082031 -11.4315625 9.26429687 -12 9 C-8.11327187 5.81994972 -4.10047867 2.89445553 0 0 Z " fill="#D2D1D1" transform="translate(87,24)"/>
<path d="M0 0 C-2.478877 2.478877 -4.63052994 3.11160061 -7.9375 4.25 C-8.99839844 4.62640625 -10.05929688 5.0028125 -11.15234375 5.390625 C-12.09207031 5.59171875 -13.03179687 5.7928125 -14 6 C-14.99 5.34 -15.98 4.68 -17 4 C-14.73291675 3.1344953 -12.46224921 2.28240685 -10.1875 1.4375 C-9.54490234 1.19064453 -8.90230469 0.94378906 -8.24023438 0.68945312 C-3.33984375 -1.11328125 -3.33984375 -1.11328125 0 0 Z " fill="#3A3A3A" transform="translate(111,166)"/>
<path d="M0 0 C0.33 0.66 0.66 1.32 1 2 C2.65 2 4.3 2 6 2 C5.67 2.66 5.34 3.32 5 4 C4.01 4 3.02 4 2 4 C2.33 6.64 2.66 9.28 3 12 C2.01 11.67 1.02 11.34 0 11 C0 7.37 0 3.74 0 0 Z " fill="#1F1F1F" transform="translate(112,45)"/>
<path d="M0 0 C4.29 0.33 8.58 0.66 13 1 C13.33 1.99 13.66 2.98 14 4 C12.68 5.32 11.36 6.64 10 8 C10 5 10 5 11 3 C7.37 2.34 3.74 1.68 0 1 C0 0.67 0 0.34 0 0 Z " fill="#3A3939" transform="translate(58,121)"/>
<path d="M0 0 C1.53690745 2.41040161 2.09752136 3.50082285 1.5390625 6.359375 C1.23742187 7.14828125 0.93578125 7.9371875 0.625 8.75 C0.32851562 9.54921875 0.03203125 10.3484375 -0.2734375 11.171875 C-0.51320313 11.77515625 -0.75296875 12.3784375 -1 13 C-1.66 13 -2.32 13 -3 13 C-2.7834375 12.07767578 -2.7834375 12.07767578 -2.5625 11.13671875 C-2.376875 10.32847656 -2.19125 9.52023438 -2 8.6875 C-1.814375 7.88699219 -1.62875 7.08648437 -1.4375 6.26171875 C-0.90504177 3.89304062 -0.90504177 3.89304062 -1 1 C-0.67 0.67 -0.34 0.34 0 0 Z " fill="#373737" transform="translate(85,162)"/>
<path d="M0 0 C0 3 0 3 -1 6 C-0.01 6.33 0.98 6.66 2 7 C0.68 7 -0.64 7 -2 7 C-1.67 8.98 -1.34 10.96 -1 13 C-2.96938605 10.04592092 -3.56901423 8.44788617 -4 5 C-3 2 -3 2 0 0 Z " fill="#0F0F0F" transform="translate(67,128)"/>
<path d="M0 0 C-2.3797234 2.3797234 -3.74424795 2.58749232 -7 3.25 C-8.3303125 3.53617188 -8.3303125 3.53617188 -9.6875 3.828125 C-10.450625 3.88484375 -11.21375 3.9415625 -12 4 C-12.66 3.34 -13.32 2.68 -14 2 C-9.15758367 0.66416101 -5.06562383 -0.25328119 0 0 Z " fill="#333333" transform="translate(130,44)"/>
<path d="M0 0 C0.99 0.33 1.98 0.66 3 1 C2.34 2.65 1.68 4.3 1 6 C0.401875 5.835 -0.19625 5.67 -0.8125 5.5 C-3.11344336 4.8885876 -3.11344336 4.8885876 -6 5 C-5.195625 4.360625 -4.39125 3.72125 -3.5625 3.0625 C-1.7249496 1.59396498 -1.7249496 1.59396498 0 0 Z " fill="#3B3B3B" transform="translate(90,20)"/>
<path d="M0 0 C1.890625 0.21484375 1.890625 0.21484375 4 1 C5.046875 3.06640625 5.046875 3.06640625 5.75 5.5625 C5.99234375 6.38878906 6.2346875 7.21507813 6.484375 8.06640625 C6.65453125 8.70449219 6.8246875 9.34257813 7 10 C6.01 10.495 6.01 10.495 5 11 C4.72285156 10.37351562 4.44570312 9.74703125 4.16015625 9.1015625 C3.79792969 8.28429687 3.43570313 7.46703125 3.0625 6.625 C2.70285156 5.81289062 2.34320313 5.00078125 1.97265625 4.1640625 C1.3430097 2.76316215 0.68687358 1.37374716 0 0 Z " fill="#3B3B3B" transform="translate(115,106)"/>
<path d="M0 0 C5.80205656 5.64524422 5.80205656 5.64524422 8 9 C8 9.66 8 10.32 8 11 C7.34 11 6.68 11 6 11 C4.4921875 9.1015625 4.4921875 9.1015625 2.875 6.625 C2.33617187 5.81289062 1.79734375 5.00078125 1.2421875 4.1640625 C0 2 0 2 0 0 Z " fill="#1F1F1F" transform="translate(57,137)"/>
<path d="M0 0 C-0.33 0.66 -0.66 1.32 -1 2 C-0.01 2.66 0.98 3.32 2 4 C-0.97 4 -3.94 4 -7 4 C-6.01 3.67 -5.02 3.34 -4 3 C-4 2.34 -4 1.68 -4 1 C-4.66 0.67 -5.32 0.34 -6 0 C-3 -1 -3 -1 0 0 Z " fill="#3F3E3E" transform="translate(113,57)"/>
<path d="M0 0 C1.17539996 0.92652701 2.34010577 1.86663387 3.5 2.8125 C4.1496875 3.33457031 4.799375 3.85664063 5.46875 4.39453125 C7 6 7 6 7 9 C0.70535714 4.17857143 0.70535714 4.17857143 0 0 Z " fill="#333333" transform="translate(96,173)"/>
<path d="M0 0 C1.32 0.66 2.64 1.32 4 2 C3.34 2 2.68 2 2 2 C1.5978125 3.1446875 1.5978125 3.1446875 1.1875 4.3125 C0.05575888 6.87380884 -0.91223401 8.19692938 -3 10 C-3.33 9.34 -3.66 8.68 -4 8 C-3.22265625 6.30859375 -3.22265625 6.30859375 -2.0625 4.4375 C-0.59112671 2.35974955 -0.59112671 2.35974955 0 0 Z " fill="#2E2E2E" transform="translate(115,164)"/>
<path d="M0 0 C0 0.66 0 1.32 0 2 C-1.96875 3.5078125 -1.96875 3.5078125 -4.5 5.125 C-5.3353125 5.66382813 -6.170625 6.20265625 -7.03125 6.7578125 C-7.6809375 7.16773438 -8.330625 7.57765625 -9 8 C-9 7.01 -9 6.02 -9 5 C-7.5390625 3.61328125 -7.5390625 3.61328125 -5.625 2.3125 C-4.68527344 1.65701172 -4.68527344 1.65701172 -3.7265625 0.98828125 C-2 0 -2 0 0 0 Z " fill="#242424" transform="translate(84,165)"/>
<path d="M0 0 C0.33 0 0.66 0 1 0 C0.88601335 1.62580966 0.75844341 3.25067157 0.625 4.875 C0.52058594 6.23238281 0.52058594 6.23238281 0.4140625 7.6171875 C0 10 0 10 -2 12 C-3.15957207 8.52128379 -2.77456651 7.65780355 -1.5625 4.3125 C-1.13130859 3.10013672 -1.13130859 3.10013672 -0.69140625 1.86328125 C-0.46324219 1.24839844 -0.23507813 0.63351563 0 0 Z " fill="#3D3C3C" transform="translate(42,98)"/>
<path d="M0 0 C2.6855594 2.6855594 3.06049974 5.37621328 4 9 C3.34 9.66 2.68 10.32 2 11 C1.01 7.7 0.02 4.4 -1 1 C-0.67 0.67 -0.34 0.34 0 0 Z " fill="#3B3B3B" transform="translate(124,122)"/>
<path d="M0 0 C-0.33 0.66 -0.66 1.32 -1 2 C-3.64 2 -6.28 2 -9 2 C-9.33 1.34 -9.66 0.68 -10 0 C-6.7169902 -1.6415049 -3.57454967 -0.51888624 0 0 Z " fill="#414040" transform="translate(61,86)"/>
<path d="M0 0 C2.4375 0.625 2.4375 0.625 5 2 C5.8125 5.125 5.8125 5.125 6 8 C4 7 4 7 3 4 C1.00334686 2.31461399 1.00334686 2.31461399 -1 1 C-0.67 0.67 -0.34 0.34 0 0 Z " fill="#313131" transform="translate(147,50)"/>
<path d="M0 0 C0.66 0.33 1.32 0.66 2 1 C2 1.99 2 2.98 2 4 C2.66 4.33 3.32 4.66 4 5 C3.01 5.33 2.02 5.66 1 6 C0.67 6.66 0.34 7.32 0 8 C-0.79953138 4.71303767 -1.09658936 3.28976808 0 0 Z " fill="#0A0A0A" transform="translate(86,158)"/>
<path d="M0 0 C3 3.75 3 3.75 3 6 C2.34 6 1.68 6 1 6 C1 6.66 1 7.32 1 8 C0.01 7.67 -0.98 7.34 -2 7 C-1.34 7 -0.68 7 0 7 C-0.2784375 5.824375 -0.2784375 5.824375 -0.5625 4.625 C-1 2 -1 2 0 0 Z " fill="#161616" transform="translate(68,149)"/>
<path d="M0 0 C2 4 2 4 1.125 7.25 C0.75375 8.1575 0.3825 9.065 0 10 C-0.66 9.67 -1.32 9.34 -2 9 C-1.34 6.03 -0.68 3.06 0 0 Z " fill="#444343" transform="translate(154,94)"/>
<path d="M0 0 C0.33 0 0.66 0 1 0 C1.22174933 1.45635371 1.42698698 2.91522956 1.625 4.375 C1.74101563 5.18710937 1.85703125 5.99921875 1.9765625 6.8359375 C1.98429687 7.55007812 1.99203125 8.26421875 2 9 C1.34 9.66 0.68 10.32 0 11 C-1.125 3.375 -1.125 3.375 0 0 Z " fill="#4B4A4A" transform="translate(111,36)"/>
<path d="M0 0 C0.33 0.66 0.66 1.32 1 2 C-0.3125 4 -0.3125 4 -2 6 C-2.99 6 -3.98 6 -5 6 C-3.63016497 2.83884224 -3.0109362 2.0072908 0 0 Z " fill="#DCDADA" transform="translate(87,178)"/>
</svg>
